<svg width="1440" height="1024" viewBox="0 0 1440 1024" fill="none" xmlns="http://www.w3.org/2000/svg">
<style>
    circle {
      fill: white;
    }
</style>
<circle cx="374" cy="160" r="1" />
<circle opacity="0.161544" cx="591.825" cy="423.212" r="1" transform="rotate(168.844 591.825 423.212)" />
<circle opacity="0.669015" cx="410.19" cy="409.599" r="1" transform="rotate(-127.269 410.19 409.599)" />
<circle opacity="0.941692" cx="1017.34" cy="212.464" r="1" transform="rotate(-25.8594 1017.34 212.464)" />
<circle opacity="0.207771" cx="119.746" cy="227.653" r="1" transform="rotate(107.491 119.746 227.653)" />
<circle opacity="0.353806" cx="258.642" cy="586.74" r="1" transform="rotate(-108 258.642 586.74)" />
<circle opacity="0.724667" cx="131.62" cy="424.693" r="1" transform="rotate(147.548 131.62 424.693)" />
<circle opacity="0.942" cx="465.344" cy="902.44" r="1" transform="rotate(-26.8737 465.344 902.44)" />
<circle opacity="0.488989" cx="186.15" cy="706.176" r="1" transform="rotate(-80.6212 186.15 706.176)" />
<circle opacity="0.754222" cx="404.192" cy="476.239" r="1" transform="rotate(-77.5783 404.192 476.239)" />
<circle opacity="0.538226" cx="1029.57" cy="364.346" r="1" transform="rotate(62.8727 1029.57 364.346)" />
<circle opacity="0.906798" cx="1257.6" cy="453.178" r="1" transform="rotate(127.774 1257.6 453.178)" />
<circle opacity="0.673021" cx="790.662" cy="628.458" r="1" transform="rotate(116.111 790.662 628.458)" />
<circle opacity="0.591057" cx="564.263" cy="505.636" r="1" transform="rotate(-18.2539 564.263 505.636)" />
<circle opacity="0.0439199" cx="408.909" cy="950.411" r="1" transform="rotate(48.676 408.909 950.411)" />
<circle opacity="0.947441" cx="191.536" cy="725.664" r="1" transform="rotate(-154.142 191.536 725.664)" />
<circle opacity="0.105341" cx="463.034" cy="979.414" r="1" transform="rotate(43.6045 463.034 979.414)" />
<circle opacity="0.546426" cx="584.528" cy="434.688" r="1" transform="rotate(-113.072 584.528 434.688)" />
<circle opacity="0.0703255" cx="393.843" cy="723.813" r="1" transform="rotate(99.886 393.843 723.813)" />
<circle opacity="0.771271" cx="1224.12" cy="705.409" r="1" transform="rotate(40.0562 1224.12 705.409)" />
<circle opacity="0.106903" cx="843.078" cy="751.072" r="1" transform="rotate(85.6892 843.078 751.072)" />
<circle opacity="0.598025" cx="1295.64" cy="858.74" r="1" transform="rotate(-108 1295.64 858.74)" />
<circle opacity="0.641033" cx="1173.59" cy="888.916" r="1" transform="rotate(138.422 1173.59 888.916)" />
<circle opacity="0.31943" cx="0.911537" cy="558.903" r="1" transform="rotate(95.3233 0.911537 558.903)" />
<circle opacity="0.745527" cx="882.493" cy="534.675" r="1" transform="rotate(-114.592 882.493 534.675)" />
<circle opacity="0.452954" cx="1150.19" cy="506.239" r="1" transform="rotate(-77.5783 1150.19 506.239)" />
<circle opacity="0.44153" cx="1008.72" cy="213.387" r="1" transform="rotate(56.2815 1008.72 213.387)" />
<circle opacity="0.535233" cx="684.893" cy="535.904" r="1" transform="rotate(-95.8322 684.893 535.904)" />
<circle opacity="0.525673" cx="311.723" cy="353.608" r="1" transform="rotate(109.52 311.723 353.608)" />
<circle opacity="0.63508" cx="482.413" cy="633.047" r="1" transform="rotate(-43.0991 482.413 633.047)" />
<circle opacity="0.441477" cx="1166.88" cy="666.864" r="1" transform="rotate(97.3519 1166.88 666.864)" />
<circle opacity="0.0156469" cx="1100.45" cy="594.695" r="1" transform="rotate(-157.691 1100.45 594.695)" />
<circle opacity="0.911936" cx="368.285" cy="423.591" r="1" transform="rotate(-20.2825 368.285 423.591)" />
<circle opacity="0.111848" cx="445.407" cy="203.859" r="1" transform="rotate(-50.7046 445.407 203.859)" />
<circle opacity="0.663265" cx="1228.75" cy="1009.65" r="1" transform="rotate(107.491 1228.75 1009.65)" />
<circle opacity="0.199143" cx="949.131" cy="334.849" r="1" transform="rotate(-8.11439 949.131 334.849)" />
<circle opacity="0.180845" cx="399.824" cy="518.85" r="1" transform="rotate(-99.3805 399.824 518.85)" />
<circle opacity="0.0285736" cx="165.773" cy="377.396" r="1" transform="rotate(54.2529 165.773 377.396)" />
<circle opacity="0.548446" cx="1105" cy="1015" r="1" transform="rotate(90.2518 1105 1015)" />
<circle opacity="0.811161" cx="1300.13" cy="552.884" r="1" transform="rotate(-172.902 1300.13 552.884)" />
<circle opacity="0.176727" cx="977.648" cy="618.257" r="1" transform="rotate(17.745 977.648 618.257)" />
<circle opacity="0.0520694" cx="66" cy="201" r="1" transform="rotate(179.998 66 201)" />
<circle opacity="0.0598873" cx="385.797" cy="341.4" r="1" transform="rotate(53.2386 385.797 341.4)" />
<circle opacity="0.401266" cx="806.69" cy="901.466" r="1" transform="rotate(157.182 806.69 901.466)" />
<circle opacity="0.131654" cx="545.599" cy="229.804" r="1" transform="rotate(142.985 545.599 229.804)" />
<circle opacity="0.779743" cx="717.589" cy="509.091" r="1" transform="rotate(131.322 717.589 509.091)" />
<circle opacity="0.465238" cx="186.27" cy="194.212" r="1" transform="rotate(76.0551 186.27 194.212)" />
<circle opacity="0.702246" cx="382.978" cy="591.978" r="1" transform="rotate(91.2661 382.978 591.978)" />
<circle opacity="0.491139" cx="184.59" cy="630.353" r="1" transform="rotate(61.8584 184.59 630.353)" />
<circle opacity="0.672102" cx="809.984" cy="909.414" r="1" transform="rotate(45.6331 809.984 909.414)" />
<circle opacity="0.0279259" cx="953.7" cy="363.443" r="1" transform="rotate(158.196 953.7 363.443)" />
<circle opacity="0.723355" cx="263.164" cy="971.197" r="1" transform="rotate(-79.6069 263.164 971.197)" />
<circle opacity="0.247887" cx="1391.39" cy="1004.26" r="1" transform="rotate(-34.4792 1391.39 1004.26)" />
<circle opacity="0.251947" cx="626.053" cy="506.587" r="1" transform="rotate(-132.845 626.053 506.587)" />
<circle opacity="0.701615" cx="248.746" cy="139.653" r="1" transform="rotate(107.491 248.746 139.653)" />
<circle opacity="0.184218" cx="825.829" cy="768.793" r="1" transform="rotate(100.9 825.829 768.793)" />
<circle opacity="0.184481" cx="327.365" cy="536.368" r="1" transform="rotate(-29.9166 327.365 536.368)" />
<circle opacity="0.0584473" cx="180.507" cy="76.3255" r="1" transform="rotate(65.4067 180.507 76.3255)" />
<circle opacity="0.804498" cx="735" cy="303" r="1" transform="rotate(179.998 735 303)" />
<circle opacity="0.28589" cx="1212.08" cy="50.0875" r="1" transform="rotate(-85.1838 1212.08 50.0875)" />
<circle opacity="0.0569868" cx="349.892" cy="960.121" r="1" transform="rotate(173.407 349.892 960.121)" />
<circle opacity="0.553987" cx="972.528" cy="569.688" r="1" transform="rotate(-113.072 972.528 569.688)" />
<circle opacity="0.725653" cx="710.589" cy="222.091" r="1" transform="rotate(131.322 710.589 222.091)" />
<circle opacity="0.0295534" cx="1153.19" cy="267.599" r="1" transform="rotate(-127.269 1153.19 267.599)" />
<circle opacity="0.0422191" cx="965.528" cy="856.688" r="1" transform="rotate(-113.072 965.528 856.688)" />
<circle opacity="0.01" cx="1181.16" cy="840.861" r="1" transform="rotate(-171.382 1181.16 840.861)" />
<circle opacity="0.242704" cx="978.168" cy="480.798" r="1" transform="rotate(-10.6484 978.168 480.798)" />
<circle opacity="0.0410944" cx="730.221" cy="630.397" r="1" transform="rotate(35.999 730.221 630.397)" />
<circle opacity="0.58185" cx="957.399" cy="218.209" r="1" transform="rotate(-36.5078 957.399 218.209)" />
<circle opacity="0.624117" cx="703.356" cy="289.369" r="1" transform="rotate(30.422 703.356 289.369)" />
<circle opacity="0.0895017" cx="1158.98" cy="535.586" r="1" transform="rotate(-135.888 1158.98 535.586)" />
<circle opacity="0.432272" cx="1231.6" cy="559.718" r="1" transform="rotate(-110.029 1231.6 559.718)" />
<circle opacity="0.782949" cx="906.584" cy="468.648" r="1" transform="rotate(-152.114 906.584 468.648)" />
<circle opacity="0.0365083" cx="1114.63" cy="921.338" r="1" transform="rotate(121.183 1114.63 921.338)" />
<circle opacity="0.834059" cx="747.71" cy="53.42" r="1" transform="rotate(159.21 747.71 53.42)" />
<circle opacity="0.630657" cx="1204.58" cy="188.29" r="1" transform="rotate(20.7879 1204.58 188.29)" />
<circle opacity="0.88218" cx="472.301" cy="754.618" r="1" transform="rotate(-122.706 472.301 754.618)" />
<circle opacity="0.0525514" cx="708.321" cy="639.495" r="1" transform="rotate(-65.9156 708.321 639.495)" />
<circle opacity="0.0216603" cx="300.822" cy="566.403" r="1" transform="rotate(52.2243 300.822 566.403)" />
<circle opacity="0.525288" cx="1089.91" cy="598.92" r="1" transform="rotate(-94.8179 1089.91 598.92)" />
<circle opacity="0.619107" cx="1406.56" cy="82.2999" r="1" transform="rotate(21.8022 1406.56 82.2999)" />
<circle opacity="0.135865" cx="15.9956" cy="689.996" r="1" transform="rotate(90.2518 15.9956 689.996)" />
<circle opacity="0.268147" cx="583.344" cy="918.44" r="1" transform="rotate(-26.8737 583.344 918.44)" />
<circle opacity="0.233036" cx="1164.3" cy="846.383" r="1" transform="rotate(32.9561 1164.3 846.383)" />
<circle opacity="0.515877" cx="1371.61" cy="625.754" r="1" transform="rotate(145.014 1371.61 625.754)" />
<circle opacity="0.56288" cx="463.593" cy="918.853" r="1" transform="rotate(140.956 463.593 918.853)" />
<circle opacity="0.736046" cx="718.454" cy="738.695" r="1" transform="rotate(-157.691 718.454 738.695)" />
<circle opacity="0.379163" cx="224.39" cy="813.258" r="1" transform="rotate(-34.4792 224.39 813.258)" />
<circle opacity="0.674534" cx="1392.73" cy="446.631" r="1" transform="rotate(108.506 1392.73 446.631)" />
<circle opacity="0.26375" cx="417.15" cy="288.176" r="1" transform="rotate(-80.6212 417.15 288.176)" />
<circle opacity="0.74803" cx="1358.26" cy="735.611" r="1" transform="rotate(-124.226 1358.26 735.611)" />
<circle opacity="0.21657" cx="906.041" cy="263.039" r="1" transform="rotate(87.7178 906.041 263.039)" />
<circle opacity="0.865458" cx="1350.17" cy="184.142" r="1" transform="rotate(81.1266 1350.17 184.142)" />
<circle opacity="0.396434" cx="284.505" cy="60.679" r="1" transform="rotate(-114.086 284.505 60.679)" />
<circle opacity="0.415606" cx="729.412" cy="477.072" r="1" transform="rotate(-42.0848 729.412 477.072)" />
<circle opacity="0.625539" cx="690.136" cy="1023.12" r="1" transform="rotate(82.6463 690.136 1023.12)" />
<circle opacity="0.420856" cx="523.557" cy="418.3" r="1" transform="rotate(21.8022 523.557 418.3)" />
<circle opacity="0.0553856" cx="150.723" cy="25.3869" r="1" transform="rotate(56.2815 150.723 25.3869)" />
<circle opacity="0.130306" cx="1299.69" cy="570.379" r="1" transform="rotate(57.8012 1299.69 570.379)" />
<circle opacity="0.831248" cx="1335.63" cy="916.268" r="1" transform="rotate(18.7593 1335.63 916.268)" />
<circle opacity="0.799924" cx="987.903" cy="740.589" r="1" transform="rotate(-138.931 987.903 740.589)" />
</svg>
