<svg width="42" height="42" viewBox="0 0 42 42" fill="none" xmlns="http://www.w3.org/2000/svg">
<circle cx="21" cy="21" r="21" fill="black"/>
<path d="M21.2868 34C20.0891 34 19.0911 33.804 18.2926 33.216C16.6958 32.2359 16.2966 30.4719 17.2946 28.5118C18.093 27.1398 19.6899 25.5717 20.8875 24.3957L31.4668 14.2033C30.868 13.2232 30.0696 12.2432 29.2711 11.4592C26.6762 9.10707 23.2828 8.12704 19.6899 8.51905C13.9012 9.10707 9.31021 13.6152 8.71139 19.2995C8.31217 22.2396 9.11062 25.1797 10.9071 27.5318C11.1067 27.9238 11.1067 28.3158 10.7075 28.5118C10.3083 28.7078 9.90904 28.7078 9.70943 28.3158C7.71334 25.5717 6.91495 22.4356 7.31416 19.1034C7.91299 12.8312 13.1028 7.73503 19.4903 7.14701C23.4825 6.75499 27.275 7.93103 30.2692 10.4791C31.2672 11.2632 32.0656 12.2432 32.6644 13.2232L38.8523 7.14701C39.0519 6.951 39.6508 6.951 39.8504 7.14701C40.05 7.34301 40.05 7.93103 39.8504 8.12704L33.2633 14.3993C34.2613 16.3593 34.6605 18.3194 34.6605 20.4755C34.6605 27.7278 28.8719 33.608 21.686 34C21.4863 34 21.4864 34 21.2868 34ZM32.0656 15.3793L21.8856 25.3757C20.8875 26.3557 19.0911 27.9238 18.4923 29.0998C17.6938 30.2759 17.8934 31.4519 18.8914 32.0399C19.6899 32.4319 20.4883 32.628 21.686 32.628C28.273 32.2359 33.2633 26.9438 33.2633 20.4755C33.2633 18.7114 32.8641 16.9474 32.0656 15.3793Z" fill="white"/>
<path d="M6.24653 31.1072C5.64938 31.1072 5.25125 30.9118 4.85315 30.5209C2.86265 28.5666 7.0427 24.2672 7.8389 23.4855C8.03795 23.2901 8.6351 23.2901 8.83415 23.4855C9.0332 23.6809 9.0332 24.2672 8.83415 24.4626C6.84365 26.4169 5.25125 28.9575 5.8484 29.5438C6.04745 29.7392 6.04748 29.7392 6.24653 29.7392C7.24177 29.7392 9.03321 28.1758 10.0285 27.3941L25.3553 12.9323C25.5544 12.7369 26.1515 12.7369 26.3506 12.9323C26.5496 13.1278 26.5496 13.7141 26.3506 13.9095L11.0237 28.3712C10.6256 28.5666 8.23702 31.1072 6.24653 31.1072Z" fill="white"/>
</svg>
