<svg width="300" height="300" viewBox="0 0 300 300" fill="none" xmlns="http://www.w3.org/2000/svg">
<rect width="300" height="300" rx="32" fill="url(#paint0_linear)"/>
<path opacity="0.3" fill-rule="evenodd" clip-rule="evenodd" d="M58.7639 124.403C64.4725 106.088 68.3553 85.2247 84.3163 74.3619C100.196 63.5548 121.29 67.3479 140.585 68.7171C158.628 69.9975 176.548 72.3831 191.844 81.9924C207.952 92.1117 225.061 105.273 228.299 123.821C231.462 141.937 211.847 155.598 207.821 173.506C203.046 194.747 218.766 222.053 202.845 237.041C187.377 251.602 161.24 240.988 140.129 237.229C122.394 234.071 106.404 227.088 91.3895 217.195C75.6373 206.815 57.9177 196.618 51.7117 178.967C45.4532 161.167 53.1697 142.351 58.7639 124.403Z" stroke="white" stroke-width="3"/>
<path opacity="0.1" fill-rule="evenodd" clip-rule="evenodd" d="M56.4049 169.177C52.1652 150.472 45.0652 130.465 53.4472 113.124C61.7864 95.8718 81.9675 88.6807 99.3737 80.2831C115.65 72.4305 132.375 65.5964 150.449 66.3253C169.483 67.0929 190.909 69.999 203.019 84.4629C214.846 98.59 204.702 120.17 210.196 137.688C216.711 158.465 244.03 174.318 237.751 195.214C231.651 215.514 203.679 219.3 183.5 226.529C166.549 232.602 149.191 234.493 131.218 233.378C112.362 232.208 91.8933 232.174 77.6626 219.962C63.3111 207.646 60.5597 187.509 56.4049 169.177Z" stroke="white" stroke-width="3"/>
<path opacity="0.2" fill-rule="evenodd" clip-rule="evenodd" d="M141.26 56.3432C169.704 52.8047 200.432 64.5223 218.582 80.1606C235.372 94.6258 226.97 115.499 231.222 133.853C234.613 148.49 244.199 162.06 240.95 176.713C237.257 193.372 228.909 209.764 211.753 221.669C192.734 234.868 168 247.699 141.26 245.892C114.888 244.11 98.2488 226.172 80.0622 212.77C65.2321 201.841 50.8491 190.355 46.0201 175.707C41.4545 161.859 48.1067 148.07 54.266 134.524C60.4782 120.861 69.1117 108.518 81.7215 97.1862C99.2102 81.4692 113.132 59.8423 141.26 56.3432Z" stroke="white" stroke-width="3"/>
<path opacity="0.4" fill-rule="evenodd" clip-rule="evenodd" d="M103.208 97.5348C117.501 79.3443 141.694 68.4038 160.895 66.8268C178.655 65.3681 185.601 81.8542 198.373 89.7188C208.559 95.991 221.69 98.1349 228.083 108.199C235.351 119.641 239.804 133.585 236.687 150.033C233.231 168.267 226.296 189.552 209.967 203.776C193.864 217.803 174.234 217.23 156.272 220.08C141.625 222.405 126.921 224.162 115.906 218.704C105.492 213.543 101.535 202.025 97.4312 190.922C93.2928 179.725 91.2845 167.888 92.1218 154.351C93.2831 135.577 89.0734 115.523 103.208 97.5348Z" stroke="white" stroke-width="3"/>
<path opacity="0.5" fill-rule="evenodd" clip-rule="evenodd" d="M99.7094 150.318C97.5584 132.554 104.681 113.365 114.187 102.03C122.981 91.5451 135.669 96.7917 146.826 94.1364C155.724 92.0187 163.972 86.0327 172.88 88.0615C183.006 90.3679 192.97 95.5809 200.207 106.295C208.23 118.172 216.03 133.618 214.932 150.318C213.849 166.787 202.944 177.178 194.797 188.535C188.154 197.797 181.172 206.779 172.268 209.794C163.85 212.646 155.468 208.491 147.233 204.645C138.928 200.765 131.426 195.374 124.537 187.499C114.983 176.577 101.836 167.883 99.7094 150.318Z" stroke="white" stroke-width="3"/>
<path d="M43.2361 115.772H87.6695L84.2221 131.973H58.4622L56.0682 143.218H76.9442L73.7841 158.274H52.8123L47.4496 183.433H28.7761L43.2361 115.772Z" fill="white"/>
<path d="M95.5123 115.772H114.186L103.173 167.232H131.806L128.359 183.433H81.0523L95.5123 115.772Z" fill="white"/>
<path d="M161.482 184.004C155.928 184.004 151.427 182.988 147.98 180.955C144.596 178.922 142.107 176.158 140.511 172.664C138.978 169.106 138.212 165.136 138.212 160.752C138.212 157.448 138.595 154.05 139.361 150.555L146.831 115.772H165.504L158.035 150.555C157.78 151.762 157.588 152.938 157.46 154.081C157.333 155.161 157.269 156.241 157.269 157.321C157.269 160.244 157.875 162.69 159.088 164.659C160.301 166.565 162.28 167.518 165.025 167.518C167.579 167.518 169.814 166.724 171.729 165.136C173.644 163.484 175.208 161.387 176.421 158.846C177.698 156.241 178.656 153.478 179.294 150.555L186.763 115.772H205.437L197.967 150.555C196.627 156.845 194.36 162.531 191.168 167.613C187.976 172.632 183.891 176.635 178.911 179.621C173.995 182.543 168.186 184.004 161.482 184.004Z" fill="white"/>
<path d="M223.238 150.079L209.257 115.772H229.463L235.879 137.119L251.392 115.772H271.502L242.869 150.079L256.276 183.433H236.166L230.324 163.039L215.769 183.433H195.563L223.238 150.079Z" fill="white"/>
<defs>
<linearGradient id="paint0_linear" x1="150" y1="0" x2="150" y2="300" gradientUnits="userSpaceOnUse">
<stop stop-color="#353E58"/>
<stop offset="1" stop-color="#C56A86"/>
</linearGradient>
</defs>
</svg>
