<svg width="300" height="300" viewBox="0 0 300 300" fill="none" xmlns="http://www.w3.org/2000/svg">
<path fill-rule="evenodd" clip-rule="evenodd" d="M39.6339 120.131C46.5394 97.9694 51.2363 72.7241 70.5441 59.5796C89.753 46.5025 115.27 51.0923 138.611 52.7492C160.437 54.2985 182.114 57.1852 200.618 68.8129C220.103 81.0577 240.799 96.9834 244.717 119.427C248.543 141.349 224.815 157.88 219.945 179.549C214.169 205.251 233.185 238.293 213.925 256.429C195.215 274.048 163.597 261.205 138.059 256.656C116.606 252.835 97.2629 244.385 79.1003 232.414C60.0452 219.854 38.6102 207.515 31.103 186.157C23.5322 164.618 32.8666 141.849 39.6339 120.131Z" stroke="#C56A86" stroke-width="3"/>
<path fill-rule="evenodd" clip-rule="evenodd" d="M36.7799 174.311C31.6512 151.676 23.0625 127.467 33.2021 106.483C43.2898 85.6075 67.7025 76.9061 88.7584 66.7446C108.448 57.2425 128.68 48.973 150.543 49.855C173.568 50.7838 199.487 54.3004 214.136 71.8023C228.443 88.8968 216.172 115.01 222.817 136.207C230.699 161.348 263.746 180.531 256.15 205.816C248.772 230.38 214.935 234.961 190.525 243.709C170.019 251.057 149.021 253.346 127.28 251.996C104.47 250.581 79.7095 250.539 62.4949 235.762C45.1343 220.86 41.806 196.492 36.7799 174.311Z" stroke="#C56A86" stroke-width="3"/>
<path fill-rule="evenodd" clip-rule="evenodd" d="M139.427 37.7763C173.835 33.4945 211.006 47.6734 232.962 66.5964C253.272 84.1 243.109 109.357 248.253 131.566C252.355 149.279 263.95 165.698 260.02 183.429C255.552 203.588 245.454 223.423 224.701 237.828C201.694 253.799 171.774 269.326 139.427 267.139C107.525 264.983 87.3975 243.277 65.3976 227.06C47.4579 213.835 30.0592 199.937 24.2176 182.212C18.6947 165.455 26.7417 148.77 34.1925 132.378C41.7073 115.845 52.151 100.911 67.4048 87.1981C88.5605 68.1799 105.401 42.0104 139.427 37.7763Z" stroke="#C56A86" stroke-width="3"/>
<path fill-rule="evenodd" clip-rule="evenodd" d="M93.3962 87.6197C110.687 65.6083 139.953 52.3698 163.179 50.4616C184.664 48.6965 193.066 68.6455 208.516 78.1619C220.838 85.7516 236.722 88.3458 244.456 100.524C253.248 114.369 258.634 131.242 254.863 151.144C250.682 173.209 242.293 198.965 222.541 216.176C203.061 233.15 179.315 232.456 157.587 235.905C139.869 238.718 122.081 240.845 108.757 234.24C96.1591 227.995 91.3723 214.057 86.4086 200.623C81.4024 187.073 78.9731 172.75 79.9859 156.37C81.3907 133.653 76.2983 109.386 93.3962 87.6197Z" stroke="#C56A86" stroke-width="3"/>
<path fill-rule="evenodd" clip-rule="evenodd" d="M89.1645 151.49C86.5626 129.995 95.1789 106.775 106.678 93.0592C117.315 80.372 132.664 86.7206 146.16 83.5076C156.924 80.9451 166.902 73.7017 177.677 76.1566C189.927 78.9475 201.98 85.2555 210.735 98.2196C220.44 112.592 229.875 131.282 228.547 151.49C227.236 171.418 214.046 183.991 204.19 197.735C196.154 208.941 187.708 219.81 176.937 223.459C166.754 226.909 156.615 221.882 146.653 217.228C136.606 212.534 127.531 206.009 119.198 196.481C107.641 183.265 91.7376 172.745 89.1645 151.49Z" stroke="#C56A86" stroke-width="3"/>
<path d="M20.8501 109.688H74.6002L70.4299 129.291H39.2688L36.3728 142.898H61.626L57.8033 161.117H32.4342L25.9471 191.56H3.35815L20.8501 109.688Z" fill="#C56A86"/>
<path d="M84.0874 109.688H106.676L93.3546 171.957H127.991L123.821 191.56H66.5954L84.0874 109.688Z" fill="#C56A86"/>
<path d="M163.89 192.252C157.171 192.252 151.727 191.022 147.556 188.562C143.463 186.102 140.451 182.758 138.521 178.53C136.667 174.224 135.741 169.42 135.741 164.115C135.741 160.118 136.204 156.005 137.131 151.777L146.166 109.688H168.755L159.72 151.777C159.411 153.238 159.179 154.66 159.025 156.044C158.87 157.35 158.793 158.657 158.793 159.964C158.793 163.5 159.526 166.46 160.994 168.843C162.461 171.149 164.855 172.303 168.176 172.303C171.265 172.303 173.968 171.342 176.285 169.42C178.602 167.421 180.494 164.884 181.961 161.809C183.506 158.657 184.664 155.313 185.436 151.777L194.472 109.688H217.061L208.025 151.777C206.403 159.388 203.662 166.268 199.8 172.418C195.939 178.491 190.997 183.334 184.973 186.947C179.026 190.484 171.999 192.252 163.89 192.252Z" fill="#C56A86"/>
<path d="M238.594 151.2L221.682 109.688H246.124L253.885 135.518L272.652 109.688H296.978L262.342 151.2L278.559 191.56H254.233L247.167 166.883L229.559 191.56H205.116L238.594 151.2Z" fill="#C56A86"/>
</svg>
