<svg width="57" height="57" viewBox="0 0 57 57" fill="none" xmlns="http://www.w3.org/2000/svg">
<rect x="1" y="1" width="55" height="55" fill="white"/>
<path d="M38.5 28.5H39V28H38.5V28.5ZM28.5 38C23.2533 38 19 33.7467 19 28.5H18C18 34.299 22.701 39 28.5 39V38ZM38 28.5C38 33.7467 33.7467 38 28.5 38V39C34.299 39 39 34.299 39 28.5H38ZM28.5 18C22.701 18 18 22.701 18 28.5H19C19 23.2533 23.2533 19 28.5 19V18ZM28.5 19C31.1583 19 33.5609 20.0912 35.2857 21.8514L36 21.1515C34.0948 19.2073 31.4379 18 28.5 18V19ZM29 29H38.5V28H29V29Z" fill="black"/>
<rect x="1" y="1" width="55" height="55" stroke="black" stroke-width="2"/>
</svg>
