<svg width="24" height="24" viewBox="0 0 24 24" fill="none" xmlns="http://www.w3.org/2000/svg">
<path fill-rule="evenodd" clip-rule="evenodd" d="M17.25 12C17.25 14.8995 14.8995 17.25 12 17.25C9.10051 17.25 6.75 14.8995 6.75 12C6.75 9.10051 9.10051 6.75 12 6.75C14.8995 6.75 17.25 9.10051 17.25 12ZM15.9375 12C15.9375 14.1746 14.1746 15.9375 12 15.9375C9.82538 15.9375 8.0625 14.1746 8.0625 12C8.0625 9.82538 9.82538 8.0625 12 8.0625C14.1746 8.0625 15.9375 9.82538 15.9375 12Z" fill="black"/>
<path fill-rule="evenodd" clip-rule="evenodd" d="M22.5 12C22.5 17.799 17.799 22.5 12 22.5C6.20101 22.5 1.5 17.799 1.5 12C1.5 6.20101 6.20101 1.5 12 1.5C17.799 1.5 22.5 6.20101 22.5 12ZM20.5312 12C20.5312 16.7117 16.7117 20.5312 12 20.5312C7.28832 20.5312 3.46875 16.7117 3.46875 12C3.46875 7.28832 7.28832 3.46875 12 3.46875C16.7117 3.46875 20.5312 7.28832 20.5312 12Z" fill="black"/>
</svg>
