<svg width="24" height="24" viewBox="0 0 24 24" fill="none" xmlns="http://www.w3.org/2000/svg">
<path fill-rule="evenodd" clip-rule="evenodd" d="M12.6562 1.5H11.3438V1.52017C8.93817 1.66852 6.75174 2.62684 5.05384 4.12577L5.03942 4.11134L4.11134 5.03942L4.12577 5.05384C2.62684 6.75174 1.66852 8.93817 1.52017 11.3438H1.5V12.6562H1.52017C1.66852 15.0618 2.62684 17.2483 4.12577 18.9462L4.11134 18.9606L5.03942 19.8887L5.05384 19.8742C6.75174 21.3732 8.93817 22.3315 11.3438 22.4798V22.5H12.6562V22.4798C15.0618 22.3315 17.2483 21.3732 18.9462 19.8742L18.9606 19.8887L19.8887 18.9606L19.8742 18.9462C21.3732 17.2483 22.3315 15.0618 22.4798 12.6562H22.5V11.3438H22.4798C22.3315 8.93817 21.3732 6.75174 19.8742 5.05384L19.8887 5.03942L18.9606 4.11134L18.9462 4.12577C17.2483 2.62684 15.0618 1.66852 12.6562 1.52017V1.5ZM12.6562 20.5064C14.5188 20.3647 16.2141 19.625 17.5507 18.4788L15.2193 16.1474C14.4932 16.7119 13.6148 17.0898 12.6562 17.2094V20.5064ZM11.3438 17.2094C10.3852 17.0898 9.50683 16.7119 8.78067 16.1474L6.4493 18.4788C7.78588 19.625 9.48123 20.3647 11.3438 20.5064L11.3438 17.2094ZM12.6562 6.79062V3.49362C14.5188 3.6353 16.2141 4.37504 17.5507 5.52122L15.2193 7.85259C14.4932 7.28812 13.6148 6.91015 12.6562 6.79062ZM8.78067 7.85259C9.50683 7.28812 10.3852 6.91015 11.3438 6.79062V3.49362C9.48123 3.6353 7.78588 4.37504 6.4493 5.52122L8.78067 7.85259ZM7.85259 15.2193L5.52122 17.5507C4.37504 16.2141 3.6353 14.5188 3.49362 12.6562H6.79062C6.91015 13.6148 7.28812 14.4932 7.85259 15.2193ZM16.1474 8.78067L18.4788 6.4493C19.625 7.78588 20.3647 9.48123 20.5064 11.3438H17.2094C17.0898 10.3852 16.7119 9.50683 16.1474 8.78067ZM5.52122 6.4493L7.85259 8.78067C7.28812 9.50683 6.91015 10.3852 6.79062 11.3438L3.49362 11.3438C3.6353 9.48123 4.37504 7.78588 5.52122 6.4493ZM20.5064 12.6562C20.3647 14.5188 19.625 16.2141 18.4788 17.5507L16.1474 15.2193C16.7119 14.4932 17.0898 13.6148 17.2094 12.6562H20.5064ZM15.2812 12C15.2812 13.8122 13.8122 15.2812 12 15.2812C10.1878 15.2812 8.71875 13.8122 8.71875 12C8.71875 10.1878 10.1878 8.71875 12 8.71875C13.8122 8.71875 15.2812 10.1878 15.2812 12Z" fill="black"/>
</svg>
