<svg width="124" height="66" viewBox="0 0 124 66" fill="none" xmlns="http://www.w3.org/2000/svg">
<g filter="url(#filter0_d)">
<line x1="10.6352" y1="50.658" x2="25.6352" y2="34.658" stroke="black"/>
</g>
<g filter="url(#filter1_d)">
<line x1="27.6352" y1="50.658" x2="42.6352" y2="34.658" stroke="black"/>
</g>
<g filter="url(#filter2_d)">
<line x1="57.6352" y1="16.658" x2="72.6352" y2="0.658029" stroke="black"/>
</g>
<g filter="url(#filter3_d)">
<line x1="42.6352" y1="16.658" x2="57.6352" y2="0.658029" stroke="black"/>
</g>
<g filter="url(#filter4_d)">
<path d="M4.47365 36.8512V19.7278H6.51501V20.7845C7.44363 19.8879 8.54036 19.4396 9.8052 19.4396C11.4543 19.4396 12.7512 20.016 13.6958 21.1688C14.6564 22.3216 15.1368 23.8826 15.1368 25.8519C15.1368 27.8532 14.6484 29.4303 13.6718 30.5831C12.6951 31.7198 11.4303 32.2882 9.87725 32.2882C8.46831 32.2882 7.34756 31.8079 6.51501 30.8472V35.8666L4.47365 36.8512ZM9.61307 30.3909C10.7018 30.3909 11.5424 29.9987 12.1348 29.2141C12.7432 28.4296 13.0474 27.3089 13.0474 25.8519C13.0474 24.459 12.7352 23.3542 12.1107 22.5377C11.5023 21.7212 10.6458 21.3129 9.54102 21.3129C8.18012 21.3129 7.17145 21.8733 6.51501 22.994V28.7338C7.33155 29.8386 8.36424 30.3909 9.61307 30.3909ZM23.3793 32.2882C22.0504 32.2882 20.9857 31.936 20.1852 31.2315C19.3846 30.511 18.9844 29.4863 18.9844 28.1574C18.9844 26.8286 19.4327 25.8199 20.3293 25.1314C21.2419 24.443 22.3626 24.0987 23.6915 24.0987C24.9083 24.0987 26.0131 24.3629 27.0057 24.8913V23.9546C27.0057 22.1294 26.1411 21.2168 24.412 21.2168C23.1472 21.2168 21.8503 21.6491 20.5214 22.5137L19.921 20.8085C21.394 19.8959 22.955 19.4396 24.6041 19.4396C25.1325 19.4396 25.6288 19.5037 26.0931 19.6318C26.5574 19.7438 27.0137 19.952 27.462 20.2562C27.9263 20.5444 28.2866 20.9927 28.5427 21.6011C28.8149 22.2095 28.951 22.946 28.951 23.8105V32H27.0057V30.8712C25.981 31.8159 24.7722 32.2882 23.3793 32.2882ZM23.6435 30.511C24.9243 30.511 26.0451 29.9506 27.0057 28.8299V26.7165C26.0611 26.1401 25.0364 25.8519 23.9317 25.8519C23.0671 25.8519 22.3466 26.052 21.7702 26.4523C21.1939 26.8366 20.9057 27.4049 20.9057 28.1574C20.9057 28.8619 21.1458 29.4303 21.6261 29.8626C22.1065 30.2949 22.7789 30.511 23.6435 30.511ZM42.0208 19.4396C43.1575 19.4396 44.0541 19.6318 44.7106 20.016V24.2668H42.6692V21.481C42.5091 21.465 42.261 21.457 41.9247 21.457C40.6759 21.457 39.6192 21.7612 38.7546 22.3696C37.906 22.978 37.4818 23.8346 37.4818 24.9393V30.1748H41.0601V32H32.8227V30.1748H35.3924V21.553H32.8227V19.7278H37.3377V21.8652C37.7539 21.1288 38.4024 20.5444 39.283 20.1121C40.1796 19.6638 41.0922 19.4396 42.0208 19.4396ZM52.9772 32.2882C51.6483 32.2882 50.5836 31.936 49.783 31.2315C48.9825 30.511 48.5822 29.4863 48.5822 28.1574C48.5822 26.8286 49.0305 25.8199 49.9271 25.1314C50.8397 24.443 51.9605 24.0987 53.2894 24.0987C54.5062 24.0987 55.6109 24.3629 56.6036 24.8913V23.9546C56.6036 22.1294 55.739 21.2168 54.0098 21.2168C52.745 21.2168 51.4481 21.6491 50.1192 22.5137L49.5188 20.8085C50.9918 19.8959 52.5529 19.4396 54.202 19.4396C54.7303 19.4396 55.2266 19.5037 55.691 19.6318C56.1553 19.7438 56.6116 19.952 57.0599 20.2562C57.5242 20.5444 57.8844 20.9927 58.1406 21.6011C58.4128 22.2095 58.5489 22.946 58.5489 23.8105V32H56.6036V30.8712C55.5789 31.8159 54.3701 32.2882 52.9772 32.2882ZM53.2413 30.511C54.5222 30.511 55.6429 29.9506 56.6036 28.8299V26.7165C55.6589 26.1401 54.6343 25.8519 53.5295 25.8519C52.6649 25.8519 51.9445 26.052 51.3681 26.4523C50.7917 26.8366 50.5035 27.4049 50.5035 28.1574C50.5035 28.8619 50.7437 29.4303 51.224 29.8626C51.7043 30.2949 52.3768 30.511 53.2413 30.511ZM69.6013 30.1748H73.0596V32H64.1256V30.1748H67.5599V16.4857H64.606L63.6934 14.6604H69.6013V30.1748ZM84.4002 30.1748H87.8585V32H78.9246V30.1748H82.3589V16.4857H79.4049L78.4923 14.6604H84.4002V30.1748ZM97.3739 32.2882C96.045 32.2882 94.9803 31.936 94.1798 31.2315C93.3793 30.511 92.979 29.4863 92.979 28.1574C92.979 26.8286 93.4273 25.8199 94.3239 25.1314C95.2365 24.443 96.3572 24.0987 97.6861 24.0987C98.9029 24.0987 100.008 24.3629 101 24.8913V23.9546C101 22.1294 100.136 21.2168 98.4066 21.2168C97.1418 21.2168 95.8449 21.6491 94.516 22.5137L93.9156 20.8085C95.3886 19.8959 96.9496 19.4396 98.5987 19.4396C99.1271 19.4396 99.6234 19.5037 100.088 19.6318C100.552 19.7438 101.008 19.952 101.457 20.2562C101.921 20.5444 102.281 20.9927 102.537 21.6011C102.81 22.2095 102.946 22.946 102.946 23.8105V32H101V30.8712C99.9757 31.8159 98.7668 32.2882 97.3739 32.2882ZM97.6381 30.511C98.9189 30.511 100.04 29.9506 101 28.8299V26.7165C100.056 26.1401 99.031 25.8519 97.9263 25.8519C97.0617 25.8519 96.3412 26.052 95.7648 26.4523C95.1885 26.8366 94.9003 27.4049 94.9003 28.1574C94.9003 28.8619 95.1404 29.4303 95.6207 29.8626C96.1011 30.2949 96.7735 30.511 97.6381 30.511ZM107.322 32L111.861 25.6598L107.61 19.7278H109.891L112.389 23.2101C112.757 23.7545 112.957 24.0587 112.989 24.1228C113.005 24.0907 113.085 23.9626 113.23 23.7385C113.39 23.4983 113.51 23.3222 113.59 23.2101L116.087 19.7278H118.369L114.118 25.6598L118.657 32H116.376L113.59 28.1094C113.51 27.9973 113.39 27.8292 113.23 27.6051C113.085 27.3649 113.005 27.2288 112.989 27.1968C112.925 27.2929 112.821 27.445 112.677 27.6531C112.549 27.8612 112.453 28.0133 112.389 28.1094L109.603 32H107.322Z" fill="black"/>
</g>
<defs>
<filter id="filter0_d" x="6.27045" y="34.3161" width="23.7295" height="24.6839" filterUnits="userSpaceOnUse" color-interpolation-filters="sRGB">
<feFlood flood-opacity="0" result="BackgroundImageFix"/>
<feColorMatrix in="SourceAlpha" type="matrix" values="0 0 0 0 0 0 0 0 0 0 0 0 0 0 0 0 0 0 127 0"/>
<feOffset dy="4"/>
<feGaussianBlur stdDeviation="2"/>
<feColorMatrix type="matrix" values="0 0 0 0 0 0 0 0 0 0 0 0 0 0 0 0 0 0 0.25 0"/>
<feBlend mode="normal" in2="BackgroundImageFix" result="effect1_dropShadow"/>
<feBlend mode="normal" in="SourceGraphic" in2="effect1_dropShadow" result="shape"/>
</filter>
<filter id="filter1_d" x="23.2704" y="34.3161" width="23.7295" height="24.6839" filterUnits="userSpaceOnUse" color-interpolation-filters="sRGB">
<feFlood flood-opacity="0" result="BackgroundImageFix"/>
<feColorMatrix in="SourceAlpha" type="matrix" values="0 0 0 0 0 0 0 0 0 0 0 0 0 0 0 0 0 0 127 0"/>
<feOffset dy="4"/>
<feGaussianBlur stdDeviation="2"/>
<feColorMatrix type="matrix" values="0 0 0 0 0 0 0 0 0 0 0 0 0 0 0 0 0 0 0.25 0"/>
<feBlend mode="normal" in2="BackgroundImageFix" result="effect1_dropShadow"/>
<feBlend mode="normal" in="SourceGraphic" in2="effect1_dropShadow" result="shape"/>
</filter>
<filter id="filter2_d" x="53.2704" y="0.316071" width="23.7295" height="24.6839" filterUnits="userSpaceOnUse" color-interpolation-filters="sRGB">
<feFlood flood-opacity="0" result="BackgroundImageFix"/>
<feColorMatrix in="SourceAlpha" type="matrix" values="0 0 0 0 0 0 0 0 0 0 0 0 0 0 0 0 0 0 127 0"/>
<feOffset dy="4"/>
<feGaussianBlur stdDeviation="2"/>
<feColorMatrix type="matrix" values="0 0 0 0 0 0 0 0 0 0 0 0 0 0 0 0 0 0 0.25 0"/>
<feBlend mode="normal" in2="BackgroundImageFix" result="effect1_dropShadow"/>
<feBlend mode="normal" in="SourceGraphic" in2="effect1_dropShadow" result="shape"/>
</filter>
<filter id="filter3_d" x="38.2704" y="0.316071" width="23.7295" height="24.6839" filterUnits="userSpaceOnUse" color-interpolation-filters="sRGB">
<feFlood flood-opacity="0" result="BackgroundImageFix"/>
<feColorMatrix in="SourceAlpha" type="matrix" values="0 0 0 0 0 0 0 0 0 0 0 0 0 0 0 0 0 0 127 0"/>
<feOffset dy="4"/>
<feGaussianBlur stdDeviation="2"/>
<feColorMatrix type="matrix" values="0 0 0 0 0 0 0 0 0 0 0 0 0 0 0 0 0 0 0.25 0"/>
<feBlend mode="normal" in2="BackgroundImageFix" result="effect1_dropShadow"/>
<feBlend mode="normal" in="SourceGraphic" in2="effect1_dropShadow" result="shape"/>
</filter>
<filter id="filter4_d" x="0.473633" y="14.6604" width="122.184" height="30.1908" filterUnits="userSpaceOnUse" color-interpolation-filters="sRGB">
<feFlood flood-opacity="0" result="BackgroundImageFix"/>
<feColorMatrix in="SourceAlpha" type="matrix" values="0 0 0 0 0 0 0 0 0 0 0 0 0 0 0 0 0 0 127 0"/>
<feOffset dy="4"/>
<feGaussianBlur stdDeviation="2"/>
<feColorMatrix type="matrix" values="0 0 0 0 0 0 0 0 0 0 0 0 0 0 0 0 0 0 0.15 0"/>
<feBlend mode="normal" in2="BackgroundImageFix" result="effect1_dropShadow"/>
<feBlend mode="normal" in="SourceGraphic" in2="effect1_dropShadow" result="shape"/>
</filter>
</defs>
</svg>
