<svg width="1440" height="1024" viewBox="0 0 1440 1024" fill="none" xmlns="http://www.w3.org/2000/svg">
<g filter="url(#filter0_d)">
<path d="M509.661 1363.73C448.903 1363.73 398.272 1353.79 357.767 1323.96C276.756 1274.24 256.504 1184.75 307.135 1085.31C347.64 1015.7 428.649 936.156 489.407 876.494L1026.1 359.427C995.724 309.709 955.218 259.991 914.713 220.216C783.071 100.893 610.922 51.1753 428.649 71.0625C134.986 100.893 -97.9185 329.596 -128.297 617.96C-148.55 767.114 -108.044 916.268 -16.9075 1035.59C-6.78125 1055.48 -6.78188 1075.37 -27.0345 1085.31C-47.2871 1095.25 -67.5396 1095.25 -77.6659 1075.37C-178.929 936.156 -219.432 777.058 -199.18 608.017C-168.801 289.822 94.4836 31.2885 418.525 1.45769C621.051 -18.4295 813.45 41.2318 965.344 170.498C1015.98 210.273 1056.48 259.991 1086.86 309.709L1400.77 1.45769C1410.9 -8.4859 1441.28 -8.4859 1451.41 1.45769C1461.53 11.4013 1461.53 41.2321 1451.41 51.1756L1117.24 369.37C1167.87 468.806 1188.12 568.243 1188.12 677.622C1188.12 1045.54 894.458 1343.84 529.912 1363.73C519.786 1363.73 519.787 1363.73 509.661 1363.73ZM1056.48 419.088L540.039 926.212C489.407 975.93 398.272 1055.48 367.894 1115.14C327.388 1174.8 337.513 1234.46 388.144 1264.29C428.649 1284.18 469.154 1294.12 529.912 1294.12C864.08 1274.24 1117.24 1005.76 1117.24 677.622C1117.24 588.13 1096.99 498.637 1056.48 419.088Z" fill="black"/>
<path d="M-253.331 1216.97C-283.625 1216.97 -303.822 1207.06 -324.018 1187.23C-424.998 1088.09 -212.941 869.977 -172.549 830.32C-162.451 820.406 -132.157 820.406 -122.059 830.32C-111.961 840.234 -111.961 869.977 -122.059 879.891C-223.039 979.033 -303.822 1107.92 -273.528 1137.66C-263.431 1147.58 -263.429 1147.58 -253.331 1147.58C-202.842 1147.58 -111.961 1068.26 -61.4711 1028.6L716.072 294.951C726.17 285.037 756.464 285.037 766.561 294.951C776.659 304.865 776.659 334.608 766.561 344.522L-10.9814 1078.18C-31.1772 1088.09 -152.352 1216.97 -253.331 1216.97Z" fill="black"/>
</g>
<defs>
<filter id="filter0_d" x="-355" y="-6" width="1818" height="1377.73" filterUnits="userSpaceOnUse" color-interpolation-filters="sRGB">
<feFlood flood-opacity="0" result="BackgroundImageFix"/>
<feColorMatrix in="SourceAlpha" type="matrix" values="0 0 0 0 0 0 0 0 0 0 0 0 0 0 0 0 0 0 127 0"/>
<feOffset dy="4"/>
<feGaussianBlur stdDeviation="2"/>
<feColorMatrix type="matrix" values="0 0 0 0 0 0 0 0 0 0 0 0 0 0 0 0 0 0 0.25 0"/>
<feBlend mode="normal" in2="BackgroundImageFix" result="effect1_dropShadow"/>
<feBlend mode="normal" in="SourceGraphic" in2="effect1_dropShadow" result="shape"/>
</filter>
</defs>
</svg>
