<svg width="268" height="237" viewBox="0 0 268 237" fill="none" xmlns="http://www.w3.org/2000/svg">
<path opacity="0.3" fill-rule="evenodd" clip-rule="evenodd" d="M35.4063 91.3398C41.5752 71.5196 45.7711 48.9417 63.0194 37.1862C80.1793 25.4908 102.975 29.5956 123.826 31.0774C143.323 32.463 162.689 35.0447 179.218 45.4438C196.625 56.3949 215.114 70.6378 218.613 90.7104C222.032 110.316 200.835 125.1 196.484 144.479C191.324 167.466 208.312 197.016 191.107 213.236C174.392 228.993 146.146 217.508 123.333 213.44C104.168 210.022 86.8882 202.465 70.6629 191.758C53.6404 180.526 34.4918 169.491 27.7853 150.389C21.0221 131.126 29.3609 110.763 35.4063 91.3398Z" stroke="white" stroke-width="3"/>
<path opacity="0.1" fill-rule="evenodd" clip-rule="evenodd" d="M32.8568 139.795C28.2752 119.552 20.6026 97.9003 29.6606 79.1341C38.6723 60.464 60.4809 52.6819 79.2909 43.5941C96.8801 35.096 114.954 27.7002 134.485 28.489C155.054 29.3197 178.208 32.4647 191.294 48.1174C204.076 63.4057 193.113 86.7598 199.05 105.717C206.091 128.202 235.613 145.358 228.828 167.971C222.236 189.94 192.008 194.037 170.202 201.86C151.884 208.432 133.126 210.479 113.703 209.272C93.3268 208.006 71.2072 207.969 55.8288 194.753C40.32 181.425 37.3467 159.633 32.8568 139.795Z" stroke="white" stroke-width="3"/>
<path opacity="0.2" fill-rule="evenodd" clip-rule="evenodd" d="M124.555 17.6866C155.293 13.8573 188.498 26.538 208.113 43.4616C226.256 59.1158 217.178 81.7043 221.772 101.567C225.437 117.408 235.795 132.092 232.285 147.95C228.293 165.978 219.273 183.718 200.733 196.601C180.18 210.884 153.452 224.771 124.555 222.815C96.056 220.886 78.0752 201.474 58.4219 186.97C42.3959 175.143 26.853 162.713 21.6345 146.862C16.7007 131.875 23.8894 116.953 30.5455 102.293C37.2586 87.5069 46.5884 74.1503 60.2151 61.8865C79.1142 44.8778 94.1588 21.4733 124.555 17.6866Z" stroke="white" stroke-width="3"/>
<path opacity="0.4" fill-rule="evenodd" clip-rule="evenodd" d="M83.434 62.2637C98.8801 42.578 125.025 30.7383 145.774 29.0317C164.966 27.4531 172.472 45.2943 186.274 53.8052C197.282 60.5929 211.472 62.9131 218.38 73.8044C226.235 86.1864 231.047 101.276 227.678 119.076C223.943 138.81 216.449 161.844 198.803 177.237C181.401 192.417 160.188 191.797 140.778 194.882C124.95 197.397 109.059 199.299 97.1562 193.392C85.9022 187.807 81.626 175.342 77.1918 163.327C72.7196 151.209 70.5494 138.399 71.4542 123.75C72.7091 103.433 68.1599 81.7301 83.434 62.2637Z" stroke="white" stroke-width="3"/>
<path opacity="0.5" fill-rule="evenodd" clip-rule="evenodd" d="M79.6538 119.385C77.3293 100.162 85.0266 79.3952 95.2993 67.1285C104.802 55.7818 118.513 61.4596 130.57 58.5861C140.185 56.2943 149.099 49.8163 158.725 52.0119C169.668 54.5079 180.436 60.1493 188.256 71.7437C196.926 84.5974 205.355 101.313 204.168 119.385C202.998 137.208 191.214 148.453 182.41 160.744C175.231 170.766 167.686 180.487 158.064 183.75C148.967 186.836 139.909 182.34 131.01 178.177C122.035 173.979 113.928 168.144 106.483 159.622C96.159 147.803 81.9523 138.394 79.6538 119.385Z" stroke="white" stroke-width="3"/>
<path d="M18.6261 82H66.6429L62.9174 99.5319H35.0802L32.493 111.701H55.0526L51.6376 127.995H28.9746L23.1794 155.221H3L18.6261 82Z" fill="white"/>
<path d="M75.1181 82H95.2975L83.3968 137.69H114.339L110.613 155.221H59.4919L75.1181 82Z" fill="white"/>
<path d="M146.408 155.84C140.406 155.84 135.542 154.74 131.817 152.54C128.161 150.34 125.47 147.349 123.745 143.568C122.089 139.718 121.262 135.421 121.262 130.677C121.262 127.102 121.676 123.423 122.503 119.642L130.575 82H150.755L142.683 119.642C142.407 120.948 142.2 122.22 142.062 123.458C141.924 124.627 141.855 125.795 141.855 126.964C141.855 130.127 142.51 132.774 143.821 134.905C145.132 136.968 147.271 137.999 150.237 137.999C152.997 137.999 155.411 137.14 157.481 135.421C159.551 133.633 161.241 131.364 162.552 128.614C163.932 125.795 164.966 122.805 165.656 119.642L173.728 82H193.908L185.836 119.642C184.387 126.449 181.938 132.602 178.488 138.102C175.039 143.534 170.624 147.865 165.242 151.096C159.93 154.259 153.652 155.84 146.408 155.84Z" fill="white"/>
<path d="M213.144 119.126L198.036 82H219.871L226.804 105.101L243.569 82H265.301L234.359 119.126L248.846 155.221H227.115L220.802 133.152L205.073 155.221H183.237L213.144 119.126Z" fill="white"/>
</svg>
