<svg width="262" height="108" viewBox="0 0 262 108" fill="none" xmlns="http://www.w3.org/2000/svg">
<path d="M54.3179 83.3848C54.2035 84.1475 54.0764 84.7817 53.9819 85.5469C53.7896 87.084 53.7476 88.7051 53.7476 90.1445C53.7476 102.049 59.6519 108 71.4595 108C77.4116 108 82.9312 106.992 88.02 104.977C92.2759 103.209 96.2632 100.537 99.9819 96.9551C101.965 104.318 107.6 108 116.886 108C122.838 108 128.358 106.992 133.446 104.977C137.862 103.143 141.988 100.334 145.826 96.5488C147.708 104.184 152.744 107.008 162.775 107.008H195.065L195.161 107.012L195.794 106.166L210.41 89.2949L218.315 107.008H246.065L228.725 68.1523L261.065 30.8203L260.686 30.8164H234.326L233.315 30.8203L219.29 47.0098L212.065 30.8203L211.966 30.8164H184.646L184.315 30.8203L200.975 68.1523L193.044 77.3125L192.833 77.5527C190.048 80.6758 187.647 82.584 185.586 83.5195C183.474 84.4805 181.603 84.9609 179.97 84.9609C176.323 84.9609 174.499 82.752 174.499 78.3359C174.499 77.7168 174.541 77.0566 174.624 76.3555L174.63 76.3203L184.278 30.8164H156.918L146.982 77.1836C145.315 79.1387 143.768 80.6797 142.342 81.8086L142.121 81.9824L141.87 82.1699C141.556 82.4023 141.248 82.6133 140.946 82.8047C140.497 83.0898 140.061 83.3281 139.638 83.5195C137.526 84.4805 135.654 84.9609 134.022 84.9609C130.375 84.9609 128.55 82.752 128.55 78.3359C128.55 77.375 128.651 76.3145 128.85 75.1504C128.89 74.9199 128.934 74.6855 128.982 74.4473L138.198 30.8164H110.982L100.905 77.9336C98.3892 80.7734 96.1577 82.6367 94.2114 83.5195C92.0991 84.4805 90.228 84.9609 88.5952 84.9609C84.9478 84.9609 83.1235 82.752 83.1235 78.3359C83.1235 77.4902 83.2017 76.5645 83.3569 75.5605L83.4067 75.3125L90.2886 43.1113C90.6724 41.4805 90.9126 39.8965 91.0083 38.3594C91.1997 36.7285 91.2964 35.1914 91.2964 33.752C91.2964 26.3594 88.8481 20.5527 83.9526 16.3281C80.6304 13.4043 75.9058 11.4922 69.7788 10.5938L54.3179 83.3848Z" fill="white"/>
<path d="M63.9976 0.00976562C63.6069 0.00390625 63.2134 0 62.8149 0C55.9995 0 49.7114 1.00781 43.9507 3.02344C38.1909 5.03906 33.3433 8.16016 29.4067 12.3848C25.5669 16.6074 22.9272 22.0801 21.4868 28.8008L19.1831 39.5996H5.39893L0.935059 60.1914H14.7192L4.80713 107L32.1665 107.004L42.0786 60.1914H51.1509L55.4712 39.5996H46.5435L47.4067 35.4238C47.7427 33.832 48.1694 32.3672 48.688 31.0312C48.9038 30.4727 49.1362 29.9355 49.3853 29.4238C49.4731 29.2422 49.563 29.0625 49.6548 28.8867C49.7974 28.6133 49.9448 28.3477 50.0962 28.0898C50.4253 27.5273 50.7769 26.9961 51.1509 26.4961C52.9556 24.2168 55.606 23.0645 59.1021 23.041L63.9976 0.00976562Z" fill="white"/>
</svg>
