<svg width="24" height="24" viewBox="0 0 24 24" fill="none" xmlns="http://www.w3.org/2000/svg">
<path d="M19.7551 12.0002H20.7551V11.0002H19.7551V12.0002ZM12 18.7553C8.26924 18.7553 5.24487 15.731 5.24487 12.0002H3.24487C3.24487 16.8355 7.16467 20.7553 12 20.7553V18.7553ZM18.7551 12.0002C18.7551 15.731 15.7307 18.7553 12 18.7553V20.7553C16.8353 20.7553 20.7551 16.8355 20.7551 12.0002H18.7551ZM12 3.24512C7.16467 3.24512 3.24487 7.16491 3.24487 12.0002H5.24487C5.24487 8.26948 8.26924 5.24512 12 5.24512V3.24512ZM12 5.24512C13.8903 5.24512 15.5979 6.0203 16.8251 7.27267L18.2536 5.87288C16.6657 4.25243 14.4496 3.24512 12 3.24512V5.24512ZM12.3877 13.0002H19.7551V11.0002H12.3877V13.0002Z" fill="white"/>
</svg>
