<svg width="258" height="134" viewBox="0 0 258 134" fill="none" xmlns="http://www.w3.org/2000/svg">
<g filter="url(#filter0_f)">
<path fill-rule="evenodd" clip-rule="evenodd" d="M72.1759 37.6383C73.0314 38.5992 73.4591 40.1304 73.4591 42.232C73.4591 43.384 73.3151 44.728 73.0271 46.264C72.8351 47.8 72.5471 49.528 72.1631 51.448L61.2191 102.712C60.9311 103.864 60.7871 105.016 60.7871 106.168C60.7871 110.296 62.4191 113.8 65.6831 116.68C68.9471 119.464 73.6991 120.856 79.9391 120.856C83.3951 120.856 86.8031 120.472 90.1631 119.704C93.4723 119.042 96.2693 118.334 98.5541 117.579C101.46 119.86 105.498 121 110.666 121C116.618 121 122.138 119.992 127.226 117.976C131.932 116.023 136.309 112.961 140.357 108.791C140.639 108.501 141.137 108.757 141.058 109.153C141.053 109.179 141.05 109.205 141.05 109.232V110.488C141.05 114.328 142.346 117.064 144.938 118.696C145.201 118.846 145.446 118.989 145.678 119.124C147.632 120.261 148.698 120.881 151.673 120.984C151.731 120.995 151.791 121 151.854 121H152.627H179.113C179.436 121 179.739 120.844 179.927 120.581L193.922 100.984L194.456 100.162C194.945 99.4103 196.099 99.6317 196.275 100.511L196.355 100.91C196.365 100.959 196.378 101.008 196.396 101.055L203.388 120.341C203.532 120.737 203.908 121 204.329 121H230.563C231.293 121 231.777 120.243 231.47 119.58L214.205 82.2662C214.042 81.9135 214.098 81.4982 214.349 81.2012L244.517 45.461C245.066 44.8109 244.604 43.816 243.753 43.816H219.045C218.731 43.816 218.435 43.9638 218.246 44.215L204.578 62.392L203.972 63.3709C203.504 64.1274 202.355 63.9417 202.149 63.0762L201.986 62.392L196.725 44.5334C196.6 44.108 196.209 43.816 195.766 43.816H176.824H170.363H151.507C151.035 43.816 150.628 44.1454 150.529 44.6065L140.815 89.9369C140.78 90.0991 140.706 90.2508 140.597 90.3765C137.881 93.5312 135.488 95.579 133.418 96.52C131.306 97.48 129.434 97.96 127.802 97.96C124.154 97.96 122.33 95.752 122.33 91.336C122.33 90.184 122.474 88.888 122.762 87.448L131.723 45.0227C131.855 44.4009 131.38 43.816 130.745 43.816H105.571C105.099 43.816 104.692 44.1456 104.593 44.6069L94.1063 93.64C93.9211 94.4731 93.7583 95.2951 93.6178 96.1059C93.0831 95.842 92.6515 95.452 92.3231 94.936C91.7471 93.784 91.4591 92.536 91.4591 91.192V89.851C91.4591 89.7852 91.4656 89.7195 91.4786 89.6549L91.7471 88.312L100.675 46.12C101.059 44.488 101.299 42.904 101.395 41.368C101.587 39.736 101.683 38.2 101.683 36.76C101.683 29.368 99.2351 23.56 94.3391 19.336C90.5585 16.009 84.9614 13.9923 77.5478 13.2857L72.1759 37.6383ZM73.5068 13.0357C72.7394 13.0119 71.9555 13 71.1551 13C64.3391 13 58.0511 14.008 52.2911 16.024C46.5311 18.04 41.6831 21.16 37.7471 25.384C33.9071 29.608 31.2671 35.08 29.8271 41.8L27.692 51.8086C27.5935 52.2701 27.1858 52.6 26.714 52.6H19.5456C19.0749 52.6 18.668 52.9282 18.5683 53.3881L14.5378 71.9801C14.4028 72.6033 14.8775 73.192 15.5151 73.192H21.8259C22.4613 73.192 22.9356 73.7769 22.8043 74.3986L13.522 118.353C13.3907 118.975 13.8649 119.56 14.5004 119.56H39.8163C40.2889 119.56 40.697 119.229 40.7947 118.767L50.2516 73.9854C50.3493 73.5229 50.7574 73.192 51.23 73.192H58.6792C59.1523 73.192 59.5607 72.8604 59.6579 72.3973L63.5583 53.8053C63.6886 53.184 63.2145 52.6 62.5796 52.6H56.1112C55.4775 52.6 55.0036 52.018 55.132 51.3974L55.7471 48.424C56.5151 44.776 57.7631 41.8 59.4911 39.496C61.3151 37.192 64.0031 36.04 67.5551 36.04C67.858 36.04 68.1482 36.0499 68.4258 36.0698L73.5068 13.0357ZM171.254 96.6638L184.146 82.1563C184.4 81.8699 184.469 81.4632 184.322 81.1092L174.947 58.4892L168.41 89.32C168.122 90.76 167.978 91.912 167.978 92.776C167.978 94.7791 168.881 95.9797 170.687 96.3778C170.901 96.4251 171.096 96.5261 171.254 96.6638Z" fill="black"/>
</g>
<mask id="path-2-outside-1" maskUnits="userSpaceOnUse" x="8.37244" y="7" width="237" height="112" fill="black">
<rect fill="white" x="8.37244" y="7" width="237" height="112"/>
<path fill-rule="evenodd" clip-rule="evenodd" d="M70.0484 33.6383C70.9039 34.5992 71.3316 36.1304 71.3316 38.232C71.3316 39.384 71.1876 40.728 70.8996 42.264C70.7076 43.8 70.4196 45.528 70.0356 47.448L59.0916 98.712C58.8036 99.864 58.6596 101.016 58.6596 102.168C58.6596 106.296 60.2916 109.8 63.5556 112.68C66.8196 115.464 71.5716 116.856 77.8116 116.856C81.2676 116.856 84.6756 116.472 88.0356 115.704C91.3447 115.042 94.1417 114.334 96.4266 113.579C99.3328 115.86 103.37 117 108.539 117C114.491 117 120.011 115.992 125.099 113.976C129.804 112.023 134.181 108.961 138.229 104.791C138.511 104.501 139.01 104.757 138.93 105.153C138.925 105.179 138.923 105.205 138.923 105.232V106.488C138.923 110.328 140.219 113.064 142.811 114.696C143.073 114.846 143.318 114.989 143.551 115.124C145.504 116.261 146.57 116.881 149.545 116.984C149.603 116.995 149.664 117 149.726 117H150.5H176.985C177.308 117 177.611 116.844 177.799 116.581L191.794 96.984L192.329 96.1619C192.817 95.4103 193.972 95.6317 194.148 96.5108L194.228 96.9101C194.237 96.9593 194.251 97.0077 194.268 97.0548L201.261 116.341C201.404 116.737 201.78 117 202.201 117H228.435C229.166 117 229.65 116.243 229.343 115.58L212.078 78.2662C211.915 77.9135 211.971 77.4982 212.221 77.2012L242.39 41.461C242.939 40.8109 242.476 39.816 241.626 39.816H216.918C216.603 39.816 216.307 39.9638 216.118 40.215L202.45 58.392L201.844 59.3709C201.376 60.1274 200.227 59.9417 200.021 59.0762L199.858 58.392L194.598 40.5334C194.472 40.108 194.082 39.816 193.638 39.816H174.696H168.235H149.379C148.908 39.816 148.5 40.1454 148.401 40.6065L138.688 85.9369C138.653 86.0991 138.578 86.2508 138.47 86.3765C135.754 89.5312 133.361 91.579 131.291 92.52C129.179 93.48 127.307 93.96 125.675 93.96C122.027 93.96 120.203 91.752 120.203 87.336C120.203 86.184 120.347 84.888 120.635 83.448L129.596 41.0227C129.727 40.4009 129.253 39.816 128.617 39.816H103.443C102.972 39.816 102.564 40.1456 102.466 40.6069L91.9787 89.64C91.7936 90.4731 91.6308 91.2951 91.4902 92.1059C90.9555 91.842 90.524 91.452 90.1956 90.936C89.6196 89.784 89.3316 88.536 89.3316 87.192V85.851C89.3316 85.7852 89.3381 85.7195 89.351 85.6549L89.6196 84.312L98.5476 42.12C98.9316 40.488 99.1716 38.904 99.2676 37.368C99.4596 35.736 99.5556 34.2 99.5556 32.76C99.5556 25.368 97.1076 19.56 92.2116 15.336C88.4309 12.009 82.8338 9.99227 75.4203 9.28574L70.0484 33.6383ZM71.3793 9.03575C70.6119 9.01192 69.828 9 69.0276 9C62.2116 9 55.9236 10.008 50.1636 12.024C44.4036 14.04 39.5556 17.16 35.6196 21.384C31.7796 25.608 29.1396 31.08 27.6996 37.8L25.5644 47.8086C25.466 48.2701 25.0583 48.6 24.5864 48.6H17.418C16.9474 48.6 16.5405 48.9282 16.4407 49.3881L12.4103 67.9801C12.2752 68.6033 12.75 69.192 13.3876 69.192H19.6984C20.3338 69.192 20.8081 69.7769 20.6768 70.3986L11.3944 114.353C11.2631 114.975 11.7374 115.56 12.3728 115.56H37.6887C38.1614 115.56 38.5695 115.229 38.6671 114.767L48.1241 69.9854C48.2217 69.5229 48.6298 69.192 49.1025 69.192H56.5516C57.0248 69.192 57.4332 68.8604 57.5303 68.3973L61.4307 49.8053C61.5611 49.184 61.0869 48.6 60.452 48.6H53.9837C53.3499 48.6 52.876 48.018 53.0044 47.3974L53.6196 44.424C54.3876 40.776 55.6356 37.8 57.3636 35.496C59.1876 33.192 61.8756 32.04 65.4276 32.04C65.7304 32.04 66.0207 32.0499 66.2982 32.0698L71.3793 9.03575ZM169.126 92.6638L182.018 78.1563C182.273 77.8699 182.341 77.4632 182.194 77.1092L172.82 54.4892L166.283 85.32C165.995 86.76 165.851 87.912 165.851 88.776C165.851 90.7791 166.754 91.9797 168.559 92.3778C168.773 92.4251 168.969 92.5261 169.126 92.6638Z"/>
</mask>
<path d="M70.0484 33.6383L68.0953 33.2075C67.9571 33.8341 68.1279 34.4889 68.5546 34.9682L70.0484 33.6383ZM70.8996 42.264L68.9339 41.8954C68.9264 41.9354 68.9201 41.9756 68.915 42.0159L70.8996 42.264ZM70.0356 47.448L71.9915 47.8656C71.9933 47.8571 71.9951 47.8487 71.9968 47.8402L70.0356 47.448ZM59.0916 98.712L61.0319 99.1971C61.0375 99.1747 61.0427 99.1522 61.0475 99.1296L59.0916 98.712ZM63.5556 112.68L62.2324 114.18C62.2407 114.187 62.2492 114.194 62.2577 114.202L63.5556 112.68ZM88.0356 115.704L87.6434 113.743C87.6255 113.746 87.6077 113.75 87.59 113.754L88.0356 115.704ZM96.4266 113.579L97.6613 112.006C97.1343 111.592 96.4352 111.47 95.7991 111.68L96.4266 113.579ZM125.099 113.976L125.835 115.835C125.845 115.831 125.855 115.827 125.865 115.823L125.099 113.976ZM138.229 104.791L136.795 103.398L136.795 103.398L138.229 104.791ZM138.93 105.153L140.892 105.546L140.892 105.545L138.93 105.153ZM142.811 114.696L141.745 116.388C141.769 116.404 141.794 116.418 141.818 116.432L142.811 114.696ZM143.551 115.124L142.545 116.853L142.545 116.853L143.551 115.124ZM149.545 116.984L149.891 115.015C149.8 114.999 149.707 114.989 149.615 114.986L149.545 116.984ZM177.799 116.581L176.171 115.419L176.171 115.419L177.799 116.581ZM191.794 96.984L193.422 98.1463C193.439 98.1226 193.455 98.0984 193.471 98.074L191.794 96.984ZM192.329 96.1619L194.006 97.2519L194.006 97.2519L192.329 96.1619ZM194.148 96.5108L192.187 96.903L192.187 96.9031L194.148 96.5108ZM194.228 96.9101L192.266 97.3024L192.266 97.3024L194.228 96.9101ZM194.268 97.0548L196.148 96.3731L196.148 96.3731L194.268 97.0548ZM201.261 116.341L199.381 117.023L199.381 117.023L201.261 116.341ZM229.343 115.58L231.158 114.74L231.158 114.74L229.343 115.58ZM212.078 78.2662L213.893 77.4263L213.893 77.4263L212.078 78.2662ZM212.221 77.2012L213.75 78.4913L213.75 78.4913L212.221 77.2012ZM242.39 41.461L243.918 42.7511L243.918 42.7511L242.39 41.461ZM216.118 40.215L214.52 39.013L214.52 39.013L216.118 40.215ZM202.45 58.392L200.852 57.19C200.816 57.2382 200.782 57.288 200.75 57.3393L202.45 58.392ZM201.844 59.3709L200.144 58.3182L200.144 58.3182L201.844 59.3709ZM200.021 59.0762L198.076 59.5394L198.076 59.5395L200.021 59.0762ZM199.858 58.392L201.804 57.9288C201.796 57.8946 201.787 57.8606 201.777 57.8269L199.858 58.392ZM194.598 40.5334L192.679 41.0986L192.679 41.0986L194.598 40.5334ZM148.401 40.6065L150.357 41.0255L150.357 41.0255L148.401 40.6065ZM138.688 85.9369L136.732 85.5178L136.732 85.5179L138.688 85.9369ZM138.47 86.3765L136.954 85.0716L136.954 85.0716L138.47 86.3765ZM131.291 92.52L130.463 90.6993L130.463 90.6993L131.291 92.52ZM120.635 83.448L118.678 83.0347C118.676 83.0417 118.675 83.0487 118.674 83.0558L120.635 83.448ZM129.596 41.0227L131.553 41.436L131.553 41.436L129.596 41.0227ZM102.466 40.6069L100.51 40.1885L100.51 40.1886L102.466 40.6069ZM91.9787 89.64L93.9311 90.0739C93.9322 90.0687 93.9334 90.0635 93.9345 90.0583L91.9787 89.64ZM91.4902 92.1059L90.6052 93.8994C91.1707 94.1784 91.8346 94.1744 92.3967 93.8886C92.9588 93.6028 93.3532 93.0687 93.4609 92.4474L91.4902 92.1059ZM90.1956 90.936L88.4067 91.8304C88.4375 91.8919 88.4714 91.9518 88.5083 92.0098L90.1956 90.936ZM89.351 85.6549L91.3122 86.0472L91.3122 86.0471L89.351 85.6549ZM89.6196 84.312L87.6629 83.898C87.6614 83.9052 87.6599 83.9125 87.6584 83.9198L89.6196 84.312ZM98.5476 42.12L96.6008 41.6619C96.5973 41.6766 96.594 41.6912 96.5909 41.706L98.5476 42.12ZM99.2676 37.368L97.2813 37.1343C97.277 37.1705 97.2738 37.2068 97.2715 37.2432L99.2676 37.368ZM92.2116 15.336L90.8903 16.8374C90.8952 16.8417 90.9002 16.846 90.9051 16.8503L92.2116 15.336ZM75.4203 9.28574L75.61 7.29476C74.6042 7.19891 73.6849 7.86827 73.4672 8.85492L75.4203 9.28574ZM71.3793 9.03575L73.3323 9.46657C73.4605 8.88532 73.3232 8.27717 72.9576 7.80743C72.5921 7.33769 72.0363 7.05519 71.4413 7.03671L71.3793 9.03575ZM50.1636 12.024L49.5029 10.1363L49.5029 10.1363L50.1636 12.024ZM35.6196 21.384L34.1564 20.0205C34.1508 20.0265 34.1452 20.0326 34.1397 20.0386L35.6196 21.384ZM27.6996 37.8L25.744 37.3809L25.7436 37.3827L27.6996 37.8ZM25.5644 47.8086L23.6084 47.3914L23.6084 47.3914L25.5644 47.8086ZM16.4407 49.3881L14.4861 48.9644L14.4861 48.9644L16.4407 49.3881ZM12.4103 67.9801L14.3649 68.4039L14.3649 68.4039L12.4103 67.9801ZM20.6768 70.3986L18.7199 69.9854L18.7199 69.9854L20.6768 70.3986ZM11.3944 114.353L9.43757 113.94L9.43757 113.94L11.3944 114.353ZM38.6671 114.767L40.624 115.18L40.624 115.18L38.6671 114.767ZM48.1241 69.9854L50.0809 70.3986L50.0809 70.3986L48.1241 69.9854ZM57.5303 68.3973L55.5729 67.9867L55.5729 67.9867L57.5303 68.3973ZM61.4307 49.8053L59.4733 49.3947L59.4733 49.3947L61.4307 49.8053ZM53.0044 47.3974L51.0459 46.9922L51.0459 46.9922L53.0044 47.3974ZM53.6196 44.424L51.6625 44.012L51.6611 44.0188L53.6196 44.424ZM57.3636 35.496L55.7955 34.2546C55.7847 34.2683 55.7741 34.2821 55.7636 34.296L57.3636 35.496ZM66.2982 32.0698L66.1554 34.0647C67.1453 34.1355 68.0375 33.4698 68.2513 32.5006L66.2982 32.0698ZM182.018 78.1563L183.513 79.4849L183.513 79.4848L182.018 78.1563ZM169.126 92.6638L167.809 94.1691C168.636 94.8924 169.891 94.8135 170.621 93.9924L169.126 92.6638ZM182.194 77.1092L184.042 76.3435L184.042 76.3435L182.194 77.1092ZM172.82 54.4892L174.667 53.7235C174.332 52.914 173.508 52.4172 172.636 52.4977C171.763 52.5781 171.045 53.2172 170.863 54.0744L172.82 54.4892ZM166.283 85.32L164.326 84.9052C164.325 84.9127 164.323 84.9202 164.322 84.9278L166.283 85.32ZM168.559 92.3778L168.99 90.4248L168.99 90.4248L168.559 92.3778ZM68.5546 34.9682C68.9318 35.3918 69.3316 36.3294 69.3316 38.232H73.3316C73.3316 35.9315 72.8759 33.8066 71.5422 32.3084L68.5546 34.9682ZM69.3316 38.232C69.3316 39.2255 69.2065 40.4411 68.9339 41.8954L72.8653 42.6326C73.1687 41.0149 73.3316 39.5425 73.3316 38.232H69.3316ZM68.915 42.0159C68.7304 43.4929 68.4513 45.1717 68.0744 47.0558L71.9968 47.8402C72.3879 45.8843 72.6848 44.107 72.8842 42.5121L68.915 42.0159ZM68.0797 47.0304L57.1357 98.2944L61.0475 99.1296L71.9915 47.8656L68.0797 47.0304ZM57.1513 98.2269C56.8249 99.5327 56.6596 100.848 56.6596 102.168H60.6596C60.6596 101.184 60.7823 100.195 61.0319 99.1971L57.1513 98.2269ZM56.6596 102.168C56.6596 106.904 58.5647 110.943 62.2324 114.18L64.8788 111.18C62.0185 108.657 60.6596 105.688 60.6596 102.168H56.6596ZM62.2577 114.202C66.0173 117.408 71.3072 118.856 77.8116 118.856V114.856C71.8359 114.856 67.6219 113.52 64.8535 111.158L62.2577 114.202ZM77.8116 118.856C81.4172 118.856 84.9747 118.455 88.4812 117.654L87.59 113.754C84.3765 114.489 81.118 114.856 77.8116 114.856V118.856ZM88.4278 117.665C91.7876 116.993 94.6684 116.266 97.054 115.478L95.7991 111.68C93.6151 112.401 90.9019 113.091 87.6434 113.743L88.4278 117.665ZM95.1918 115.152C98.567 117.801 103.098 119 108.539 119V115C103.643 115 100.099 113.918 97.6613 112.006L95.1918 115.152ZM108.539 119C114.721 119 120.493 117.952 125.835 115.835L124.362 112.117C119.528 114.032 114.261 115 108.539 115V119ZM125.865 115.823C130.855 113.752 135.453 110.522 139.664 106.185L136.795 103.398C132.909 107.4 128.753 110.294 124.332 112.129L125.865 115.823ZM139.664 106.185C138.615 107.266 136.641 106.401 136.969 104.761L140.892 105.545C141.378 103.112 138.408 101.737 136.795 103.398L139.664 106.185ZM136.969 104.761C136.938 104.916 136.923 105.073 136.923 105.232H140.923C140.923 105.337 140.912 105.442 140.892 105.546L136.969 104.761ZM136.923 105.232V106.488H140.923V105.232H136.923ZM136.923 106.488C136.923 110.816 138.421 114.295 141.745 116.388L143.876 113.004C142.017 111.833 140.923 109.84 140.923 106.488H136.923ZM141.818 116.432C142.073 116.578 142.312 116.717 142.545 116.853L144.557 113.395C144.325 113.26 144.073 113.114 143.803 112.96L141.818 116.432ZM142.545 116.853C143.491 117.403 144.41 117.945 145.502 118.329C146.63 118.725 147.852 118.927 149.476 118.983L149.615 114.986C148.263 114.939 147.465 114.779 146.828 114.555C146.155 114.318 145.565 113.982 144.557 113.395L142.545 116.853ZM149.199 118.954C149.373 118.985 149.549 119 149.726 119V115C149.778 115 149.834 115.004 149.891 115.015L149.199 118.954ZM149.726 119H150.5V115H149.726V119ZM150.5 119H176.985V115H150.5V119ZM176.985 119C177.954 119 178.864 118.532 179.427 117.743L176.171 115.419C176.359 115.156 176.662 115 176.985 115V119ZM179.427 117.743L193.422 98.1463L190.167 95.8217L176.171 115.419L179.427 117.743ZM193.471 98.074L194.006 97.2519L190.652 95.072L190.117 95.894L193.471 98.074ZM194.006 97.2519C193.517 98.0036 192.362 97.7822 192.187 96.903L196.109 96.1186C195.581 93.4812 192.118 92.8169 190.652 95.072L194.006 97.2519ZM192.187 96.9031L192.266 97.3024L196.189 96.5178L196.109 96.1185L192.187 96.9031ZM192.266 97.3024C192.296 97.4497 192.336 97.5949 192.388 97.7366L196.148 96.3731C196.165 96.4205 196.179 96.4689 196.189 96.5178L192.266 97.3024ZM192.388 97.7366L199.381 117.023L203.141 115.659L196.148 96.3731L192.388 97.7366ZM199.381 117.023C199.811 118.21 200.938 119 202.201 119V115C202.622 115 202.998 115.264 203.141 115.659L199.381 117.023ZM202.201 119H228.435V115H202.201V119ZM228.435 119C230.626 119 232.078 116.728 231.158 114.74L227.528 116.42C227.221 115.757 227.705 115 228.435 115V119ZM231.158 114.74L213.893 77.4263L210.263 79.106L227.528 116.42L231.158 114.74ZM213.893 77.4263C214.056 77.779 214 78.1943 213.75 78.4913L210.693 75.9111C209.941 76.802 209.773 78.0479 210.263 79.106L213.893 77.4263ZM213.75 78.4913L243.918 42.7511L240.861 40.171L210.693 75.9111L213.75 78.4913ZM243.918 42.7511C245.564 40.8007 244.178 37.816 241.626 37.816V41.816C240.775 41.816 240.313 40.8211 240.861 40.171L243.918 42.7511ZM241.626 37.816H216.918V41.816H241.626V37.816ZM216.918 37.816C215.975 37.816 215.087 38.2593 214.52 39.013L217.717 41.417C217.528 41.6682 217.232 41.816 216.918 41.816V37.816ZM214.52 39.013L200.852 57.19L204.049 59.594L217.717 41.417L214.52 39.013ZM200.75 57.3393L200.144 58.3182L203.545 60.4237L204.151 59.4447L200.75 57.3393ZM200.144 58.3182C200.612 57.5618 201.761 57.7475 201.967 58.613L198.076 59.5395C198.694 62.1358 202.14 62.6929 203.545 60.4237L200.144 58.3182ZM201.967 58.613L201.804 57.9288L197.913 58.8552L198.076 59.5394L201.967 58.613ZM201.777 57.8269L196.516 39.9683L192.679 41.0986L197.94 58.9571L201.777 57.8269ZM196.516 39.9683C196.14 38.6921 194.969 37.816 193.638 37.816V41.816C193.195 41.816 192.804 41.5239 192.679 41.0986L196.516 39.9683ZM193.638 37.816H174.696V41.816H193.638V37.816ZM174.696 37.816H168.235V41.816H174.696V37.816ZM168.235 37.816H149.379V41.816H168.235V37.816ZM149.379 37.816C147.965 37.816 146.742 38.8042 146.446 40.1874L150.357 41.0255C150.258 41.4866 149.851 41.816 149.379 41.816V37.816ZM146.446 40.1874L136.732 85.5178L140.643 86.3559L150.357 41.0255L146.446 40.1874ZM136.732 85.5179C136.767 85.3557 136.842 85.2021 136.954 85.0716L139.985 87.6814C140.314 87.2995 140.539 86.8425 140.643 86.3559L136.732 85.5179ZM136.954 85.0716C134.296 88.1594 132.132 89.9405 130.463 90.6993L132.118 94.3407C134.589 93.2176 137.212 90.9029 139.985 87.6813L136.954 85.0716ZM130.463 90.6993C128.509 91.5874 126.927 91.96 125.675 91.96V95.96C127.686 95.96 129.848 95.3726 132.118 94.3407L130.463 90.6993ZM125.675 91.96C124.27 91.96 123.545 91.5534 123.113 91.0302C122.62 90.4339 122.203 89.3188 122.203 87.336H118.203C118.203 89.7692 118.697 91.9661 120.029 93.5778C121.421 95.2626 123.431 95.96 125.675 95.96V91.96ZM122.203 87.336C122.203 86.3458 122.327 85.1844 122.596 83.8402L118.674 83.0558C118.366 84.5916 118.203 86.0222 118.203 87.336H122.203ZM122.592 83.8613L131.553 41.436L127.639 40.6093L118.678 83.0347L122.592 83.8613ZM131.553 41.436C131.947 39.5708 130.524 37.816 128.617 37.816V41.816C127.982 41.816 127.508 41.2311 127.639 40.6094L131.553 41.436ZM128.617 37.816H103.443V41.816H128.617V37.816ZM103.443 37.816C102.028 37.816 100.806 38.8048 100.51 40.1885L104.421 41.0252C104.323 41.4864 103.915 41.816 103.443 41.816V37.816ZM100.51 40.1886L90.0229 89.2217L93.9345 90.0583L104.421 41.0251L100.51 40.1886ZM90.0263 89.2061C89.8346 90.0688 89.6657 90.9215 89.5196 91.7644L93.4609 92.4474C93.5958 91.6686 93.7525 90.8775 93.9311 90.0739L90.0263 89.2061ZM92.3753 90.3123C92.1776 90.2148 92.0201 90.0779 91.8829 89.8623L88.5083 92.0098C89.0278 92.8262 89.7334 93.4692 90.6052 93.8994L92.3753 90.3123ZM91.9845 90.0416C91.5534 89.1795 91.3316 88.2394 91.3316 87.192H87.3316C87.3316 88.8326 87.6858 90.3885 88.4067 91.8304L91.9845 90.0416ZM91.3316 87.192V85.851H87.3316V87.192H91.3316ZM91.3316 85.851C91.3316 85.9169 91.3251 85.9826 91.3122 86.0472L87.3899 85.2626C87.3511 85.4563 87.3316 85.6534 87.3316 85.851H91.3316ZM91.3122 86.0471L91.5808 84.7042L87.6584 83.9198L87.3899 85.2627L91.3122 86.0471ZM91.5763 84.726L100.504 42.534L96.5909 41.706L87.6629 83.898L91.5763 84.726ZM100.494 42.5781C100.902 40.8462 101.16 39.1505 101.264 37.4928L97.2715 37.2432C97.1831 38.6575 96.9613 40.1298 96.6008 41.6619L100.494 42.5781ZM101.254 37.6017C101.454 35.9027 101.556 34.2881 101.556 32.76H97.5556C97.5556 34.1119 97.4654 35.5693 97.2813 37.1343L101.254 37.6017ZM101.556 32.76C101.556 24.8791 98.9201 18.4822 93.5181 13.8217L90.9051 16.8503C95.2951 20.6378 97.5556 25.8569 97.5556 32.76H101.556ZM93.5328 13.8346C89.3172 10.1248 83.2518 8.02304 75.61 7.29476L75.2305 11.2767C82.4159 11.9615 87.5446 13.8932 90.8903 16.8374L93.5328 13.8346ZM73.4672 8.85492L68.0953 33.2075L72.0014 34.0691L77.3733 9.71656L73.4672 8.85492ZM71.4413 7.03671C70.6524 7.01221 69.8478 7 69.0276 7V11C69.8082 11 70.5714 11.0116 71.3172 11.0348L71.4413 7.03671ZM69.0276 7C62.0127 7 55.4985 8.0378 49.5029 10.1363L50.8243 13.9117C56.3487 11.9782 62.4105 11 69.0276 11V7ZM49.5029 10.1363C43.4548 12.2531 38.3261 15.5458 34.1564 20.0205L37.0828 22.7474C40.7851 18.7742 45.3524 15.8269 50.8243 13.9117L49.5029 10.1363ZM34.1397 20.0386C30.0179 24.5726 27.2429 30.3861 25.744 37.3809L29.6552 38.2191C31.0363 31.7739 33.5412 26.6434 37.0995 22.7293L34.1397 20.0386ZM25.7436 37.3827L23.6084 47.3914L27.5204 48.2259L29.6556 38.2173L25.7436 37.3827ZM23.6084 47.3914C23.7069 46.9299 24.1145 46.6 24.5864 46.6V50.6C26.0021 50.6 27.2251 49.6104 27.5204 48.2259L23.6084 47.3914ZM24.5864 46.6H17.418V50.6H24.5864V46.6ZM17.418 46.6C16.0061 46.6 14.7853 47.5845 14.4861 48.9644L18.3953 49.8119C18.2956 50.2718 17.8887 50.6 17.418 50.6V46.6ZM14.4861 48.9644L10.4557 67.5564L14.3649 68.4039L18.3953 49.8119L14.4861 48.9644ZM10.4557 67.5564C10.0504 69.4259 11.4747 71.192 13.3876 71.192V67.192C14.0252 67.192 14.5 67.7807 14.3649 68.4039L10.4557 67.5564ZM13.3876 71.192H19.6984V67.192H13.3876V71.192ZM19.6984 71.192C19.0629 71.192 18.5886 70.6071 18.7199 69.9854L22.6336 70.8119C23.0275 68.9467 21.6047 67.192 19.6984 67.192V71.192ZM18.7199 69.9854L9.43757 113.94L13.3513 114.767L22.6336 70.8119L18.7199 69.9854ZM9.43757 113.94C9.04369 115.805 10.4665 117.56 12.3728 117.56V113.56C13.0083 113.56 13.4825 114.145 13.3513 114.767L9.43757 113.94ZM12.3728 117.56H37.6887V113.56H12.3728V117.56ZM37.6887 117.56C39.1067 117.56 40.331 116.567 40.624 115.18L36.7103 114.353C36.808 113.891 37.2161 113.56 37.6887 113.56V117.56ZM40.624 115.18L50.0809 70.3986L46.1672 69.5721L36.7103 114.353L40.624 115.18ZM50.0809 70.3986C49.9832 70.8611 49.5751 71.192 49.1025 71.192V67.192C47.6845 67.192 46.4602 68.1848 46.1672 69.5721L50.0809 70.3986ZM49.1025 71.192H56.5516V67.192H49.1025V71.192ZM56.5516 71.192C57.9711 71.192 59.1963 70.1972 59.4877 68.808L55.5729 67.9867C55.6701 67.5236 56.0785 67.192 56.5516 67.192V71.192ZM59.4877 68.808L63.3881 50.216L59.4733 49.3947L55.5729 67.9867L59.4877 68.808ZM63.3881 50.216C63.7792 48.3519 62.3567 46.6 60.452 46.6V50.6C59.8172 50.6 59.343 50.016 59.4733 49.3947L63.3881 50.216ZM60.452 46.6H53.9837V50.6H60.452V46.6ZM53.9837 46.6C54.6174 46.6 55.0913 47.182 54.9629 47.8026L51.0459 46.9922C50.6607 48.854 52.0824 50.6 53.9837 50.6V46.6ZM54.9629 47.8026L55.5781 44.8292L51.6611 44.0188L51.0459 46.9922L54.9629 47.8026ZM55.5767 44.836C56.3016 41.3928 57.4543 38.7084 58.9636 36.696L55.7636 34.296C53.8169 36.8916 52.4736 40.1592 51.6625 44.012L55.5767 44.836ZM58.9317 36.7374C60.2963 35.0136 62.3451 34.04 65.4276 34.04V30.04C61.4061 30.04 58.0789 31.3704 55.7955 34.2546L58.9317 36.7374ZM65.4276 34.04C65.6869 34.04 65.9293 34.0485 66.1554 34.0647L66.441 30.0749C66.112 30.0513 65.774 30.04 65.4276 30.04V34.04ZM68.2513 32.5006L73.3323 9.46657L69.4262 8.60493L64.3452 31.639L68.2513 32.5006ZM180.523 76.8278L167.631 91.3353L170.621 93.9924L183.513 79.4849L180.523 76.8278ZM180.347 77.8749C180.2 77.5209 180.269 77.1143 180.523 76.8278L183.513 79.4848C184.277 78.6256 184.482 77.4055 184.042 76.3435L180.347 77.8749ZM170.972 55.2549L180.347 77.8749L184.042 76.3435L174.667 53.7235L170.972 55.2549ZM168.239 85.7348L174.776 54.904L170.863 54.0744L164.326 84.9052L168.239 85.7348ZM167.851 88.776C167.851 88.1035 167.966 87.0992 168.244 85.7123L164.322 84.9278C164.023 86.4208 163.851 87.7205 163.851 88.776H167.851ZM168.99 90.4248C168.442 90.3039 168.229 90.1128 168.126 89.9768C168.01 89.8225 167.851 89.4876 167.851 88.776H163.851C163.851 90.0675 164.143 91.3344 164.929 92.3807C165.73 93.4453 166.871 94.0536 168.128 94.3309L168.99 90.4248ZM170.443 91.1586C170.036 90.8027 169.537 90.5455 168.99 90.4248L168.128 94.3309C168.01 94.3047 167.901 94.2495 167.809 94.1691L170.443 91.1586Z" fill="url(#paint0_linear)" mask="url(#path-2-outside-1)"/>
<defs>
<filter id="filter0_f" x="0.5" y="0" width="257.255" height="134" filterUnits="userSpaceOnUse" color-interpolation-filters="sRGB">
<feFlood flood-opacity="0" result="BackgroundImageFix"/>
<feBlend mode="normal" in="SourceGraphic" in2="BackgroundImageFix" result="shape"/>
<feGaussianBlur stdDeviation="6.5" result="effect1_foregroundBlur"/>
</filter>
<linearGradient id="paint0_linear" x1="127" y1="9" x2="127" y2="117" gradientUnits="userSpaceOnUse">
<stop stop-color="#FA52A0"/>
<stop offset="1" stop-color="#00A3FF"/>
</linearGradient>
</defs>
</svg>
