<svg width="23" height="23" viewBox="0 0 23 23" fill="none" xmlns="http://www.w3.org/2000/svg">
<path d="M21.5 11.5H22.5V10.5H21.5V11.5ZM11.5 20.5C6.52944 20.5 2.5 16.4706 2.5 11.5H0.5C0.5 17.5751 5.42487 22.5 11.5 22.5V20.5ZM20.5 11.5C20.5 16.4706 16.4706 20.5 11.5 20.5V22.5C17.5751 22.5 22.5 17.5751 22.5 11.5H20.5ZM11.5 0.5C5.42487 0.5 0.5 5.42487 0.5 11.5H2.5C2.5 6.52944 6.52944 2.5 11.5 2.5V0.5ZM11.5 2.5C14.0185 2.5 16.2939 3.53317 17.9286 5.20135L19.3571 3.80155C17.3617 1.76531 14.5777 0.5 11.5 0.5V2.5ZM12 12.5H21.5V10.5H12V12.5Z" fill="black"/>
</svg>
