<svg width="300" height="300" viewBox="0 0 300 300" fill="none" xmlns="http://www.w3.org/2000/svg">
<g clip-path="url(#clip0)">
<rect width="300" height="300" rx="150" fill="url(#paint0_linear)"/>
<path opacity="0.3" fill-rule="evenodd" clip-rule="evenodd" d="M37.4266 118.444C44.4702 95.78 49.261 69.9631 68.9549 56.5211C88.548 43.1478 114.576 47.8416 138.383 49.5359C160.645 51.1203 182.757 54.0724 201.63 65.9634C221.505 78.4854 242.615 94.7717 246.611 117.724C250.514 140.142 226.312 157.047 221.344 179.207C215.452 205.49 234.849 239.281 215.204 257.827C196.119 275.845 163.869 262.712 137.82 258.06C115.938 254.152 96.2082 245.511 77.6823 233.268C58.2461 220.424 36.3824 207.806 28.725 185.964C21.0028 163.938 30.524 140.653 37.4266 118.444Z" stroke="white" stroke-width="3"/>
<path opacity="0.1" fill-rule="evenodd" clip-rule="evenodd" d="M34.5156 173.85C29.2843 150.703 20.5238 125.945 30.8662 104.487C41.1557 83.1381 66.0566 74.2397 87.5336 63.8481C107.617 54.1309 128.253 45.6741 150.554 46.5761C174.039 47.5259 200.477 51.1221 215.418 69.0203C230.012 86.5019 217.495 113.206 224.273 134.883C232.313 160.594 266.021 180.211 258.273 206.068C250.747 231.188 216.233 235.874 191.335 244.819C170.42 252.333 149.002 254.674 126.825 253.294C103.56 251.846 78.3037 251.804 60.7448 236.693C43.037 221.453 39.6422 196.534 34.5156 173.85Z" stroke="white" stroke-width="3"/>
<path opacity="0.2" fill-rule="evenodd" clip-rule="evenodd" d="M139.216 34.2238C174.312 29.8451 212.226 44.345 234.622 63.6965C255.338 81.5964 244.971 107.425 250.218 130.137C254.402 148.251 266.229 165.042 262.221 183.175C257.663 203.789 247.364 224.074 226.196 238.805C202.728 255.138 172.21 271.016 139.216 268.78C106.676 266.575 86.1457 244.377 63.7058 227.793C45.4073 214.269 27.6606 200.056 21.7022 181.93C16.0688 164.793 24.2768 147.731 31.8766 130.968C39.5416 114.061 50.1943 98.7878 65.7531 84.7647C87.332 65.3158 104.51 38.5538 139.216 34.2238Z" stroke="white" stroke-width="3"/>
<path opacity="0.4" fill-rule="evenodd" clip-rule="evenodd" d="M92.2641 85.196C109.9 62.6862 139.752 49.148 163.443 47.1966C185.357 45.3915 193.927 65.7921 209.686 75.524C222.254 83.2855 238.456 85.9385 246.345 98.3924C255.313 112.551 260.807 129.806 256.96 150.159C252.696 172.723 244.139 199.062 223.992 216.663C204.122 234.021 179.901 233.312 157.739 236.839C139.667 239.716 121.523 241.89 107.932 235.136C95.0823 228.75 90.1998 214.496 85.1368 200.758C80.0305 186.901 77.5526 172.254 78.5857 155.503C80.0185 132.271 74.8243 107.455 92.2641 85.196Z" stroke="white" stroke-width="3"/>
<path opacity="0.5" fill-rule="evenodd" clip-rule="evenodd" d="M87.948 150.512C85.294 128.531 94.0827 104.785 105.812 90.7586C116.662 77.7842 132.317 84.2765 146.083 80.9907C157.062 78.3702 167.24 70.9629 178.231 73.4734C190.725 76.3275 203.02 82.7782 211.949 96.0359C221.849 110.734 231.473 129.847 230.118 150.512C228.781 170.891 215.327 183.75 205.274 197.804C197.077 209.264 188.462 220.379 177.476 224.111C167.089 227.639 156.747 222.498 146.587 217.739C136.339 212.938 127.082 206.266 118.582 196.522C106.794 183.007 90.5725 172.248 87.948 150.512Z" stroke="white" stroke-width="3"/>
</g>
<defs>
<linearGradient id="paint0_linear" x1="150" y1="0" x2="150" y2="300" gradientUnits="userSpaceOnUse">
<stop stop-color="#353E58"/>
<stop offset="1" stop-color="#C56A86"/>
</linearGradient>
<clipPath id="clip0">
<rect width="300" height="300" rx="150" fill="white"/>
</clipPath>
</defs>
</svg>
