<svg width="300" height="300" viewBox="0 0 300 300" fill="none" xmlns="http://www.w3.org/2000/svg">
<g clip-path="url(#clip0)">
<rect width="300" height="300" rx="150" fill="url(#paint0_linear)"/>
<path fill-rule="evenodd" clip-rule="evenodd" d="M39.6601 106.037C49.4386 83.1722 57.208 56.7783 79.1803 44.8853C101.04 33.0531 127.664 40.7439 152.296 45.0698C175.33 49.115 198.059 54.5694 216.452 68.9927C235.822 84.1815 256.074 103.427 257.771 127.779C259.428 151.565 232.385 166.583 224.824 189.146C215.857 215.908 232.441 253.213 209.97 270.432C188.141 287.16 155.939 270.004 129.288 262.354C106.901 255.928 87.2654 244.8 69.2722 230.048C50.395 214.57 28.9631 199.067 23.3304 175.479C17.6499 151.69 30.0774 128.444 39.6601 106.037Z" stroke="white" stroke-width="5"/>
<path fill-rule="evenodd" clip-rule="evenodd" d="M32.29 174.955C26.799 150.659 17.6036 124.673 28.4595 102.149C39.2597 79.7404 65.3969 70.4001 87.9401 59.4927C109.02 49.2931 130.681 40.4164 154.09 41.3632C178.74 42.3602 206.491 46.1349 222.174 64.9217C237.492 83.2711 224.354 111.301 231.469 134.054C239.907 161.041 275.288 181.632 267.156 208.774C259.256 235.141 223.029 240.059 196.895 249.448C174.941 257.336 152.46 259.793 129.183 258.344C104.762 256.824 78.252 256.78 59.8214 240.918C41.2345 224.922 37.6711 198.765 32.29 174.955Z" stroke="white" stroke-width="5"/>
<path fill-rule="evenodd" clip-rule="evenodd" d="M142.281 29.7999C177.348 25.3386 215.231 40.1122 237.608 59.829C258.307 78.0669 247.949 104.384 253.191 127.524C257.372 145.98 269.189 163.088 265.184 181.563C260.631 202.567 250.339 223.234 229.189 238.244C205.741 254.885 175.248 271.063 142.281 268.785C109.768 266.538 89.2548 243.921 66.8335 227.024C48.5502 213.245 30.8182 198.763 24.8647 180.295C19.236 162.835 27.4372 145.45 35.0307 128.37C42.6894 111.144 53.3332 95.5829 68.8792 81.295C90.4401 61.479 107.604 34.2116 142.281 29.7999Z" stroke="white" stroke-width="5"/>
<path fill-rule="evenodd" clip-rule="evenodd" d="M79.8872 89.1258C96.4456 67.9917 124.473 55.2808 146.716 53.4487C167.291 51.754 175.337 70.9078 190.133 80.045C201.933 87.3321 217.145 89.823 224.551 101.516C232.971 114.809 238.13 131.009 234.518 150.119C230.514 171.304 222.481 196.033 203.564 212.558C184.909 228.856 162.168 228.189 141.36 231.501C124.393 234.202 107.358 236.244 94.5975 229.902C82.5331 223.906 77.949 210.524 73.1954 197.625C68.4012 184.615 66.0747 170.863 67.0447 155.136C68.39 133.324 63.5132 110.025 79.8872 89.1258Z" stroke="white" stroke-width="5"/>
<path fill-rule="evenodd" clip-rule="evenodd" d="M86.0082 113.071C95.4053 93.6727 115.051 78.8106 131.981 73.4493C147.641 68.49 156.979 81.9937 169.92 86.4978C180.241 90.0899 192.426 89.3409 200.058 97.1434C208.735 106.014 215.357 117.726 215.659 133.257C215.994 150.475 213.782 171.167 201.812 187.391C190.006 203.39 172.286 206.893 156.707 213.154C144.004 218.259 131.142 222.862 120.231 220.177C109.915 217.638 104.194 208.02 98.4206 198.808C92.5977 189.518 88.5657 179.212 86.7666 166.784C84.2712 149.548 76.7158 132.253 86.0082 113.071Z" stroke="white" stroke-width="5"/>
<path fill-rule="evenodd" clip-rule="evenodd" d="M80.4027 192.091C64.9358 173.411 58.8988 146.36 61.3184 126.527C63.5566 108.181 81.7406 104.929 92.3954 93.7866C100.893 84.9 105.818 72.0773 117.369 67.9092C130.501 63.1707 145.584 61.8627 161.622 68.8078C179.403 76.5073 199.55 88.4359 210.566 108.267C221.429 127.824 216.737 147.598 215.869 166.469C215.162 181.857 213.867 197.172 206.021 207.087C198.604 216.461 186.087 217.824 173.961 219.431C161.732 221.052 149.299 220.365 135.738 216.402C116.929 210.906 95.6973 210.562 80.4027 192.091Z" stroke="white" stroke-width="5"/>
</g>
<defs>
<linearGradient id="paint0_linear" x1="150" y1="0" x2="150" y2="300" gradientUnits="userSpaceOnUse">
<stop stop-color="#353E58"/>
<stop offset="1" stop-color="#C56A86"/>
</linearGradient>
<clipPath id="clip0">
<rect width="300" height="300" rx="150" fill="white"/>
</clipPath>
</defs>
</svg>
